/* XPM */
static char *char_resized[] = {
/* columns rows colors chars-per-pixel */
"64 64 217 2 ",
"   c #1E2B32",
".  c #1E2C37",
"X  c #1D3237",
"o  c #2C3F2D",
"O  c #27372D",
"+  c #202E36",
"@  c #222E3A",
"#  c #2C2D3E",
"$  c #243435",
"%  c #253934",
"&  c #293C35",
"*  c #22313A",
"=  c #29303E",
"-  c #2C432D",
";  c #2A482E",
":  c #344C2C",
">  c #354B2A",
",  c #2F522A",
"<  c #34532C",
"1  c #3B542C",
"2  c #365C28",
"3  c #3B5C29",
"4  c #3B5B27",
"5  c #2C4233",
"6  c #2A4630",
"7  c #334634",
"8  c #39563B",
"9  c #3A6426",
"0  c #3E6925",
"q  c #366027",
"w  c #3F603C",
"e  c #557E1F",
"r  c #415A2A",
"t  c #425A38",
"y  c #456525",
"u  c #436C25",
"i  c #4A6C25",
"p  c #44642A",
"a  c #4A6826",
"s  c #467123",
"d  c #4D7323",
"f  c #4F7921",
"g  c #517624",
"h  c #537B21",
"j  c #597429",
"k  c #456534",
"l  c #546F2D",
"z  c #2E2F42",
"x  c #322E44",
"c  c #3D2B4C",
"v  c #233642",
"b  c #253A46",
"n  c #273D4A",
"m  c #283D49",
"M  c #333547",
"N  c #273F50",
"B  c #4B2B55",
"V  c #482C55",
"C  c #522B5B",
"Z  c #522957",
"A  c #4A3454",
"S  c #4A3A65",
"D  c #652B69",
"F  c #632C67",
"G  c #732973",
"H  c #7A2A79",
"J  c #2B4447",
"K  c #384547",
"L  c #2A4354",
"P  c #294559",
"I  c #254959",
"U  c #2B4A5C",
"Y  c #264557",
"T  c #375658",
"R  c #395652",
"E  c #2D4D62",
"W  c #2A4F6A",
"Q  c #2F5169",
"!  c #2F5066",
"~  c #315366",
"^  c #31536A",
"/  c #36586A",
"(  c #2E5C74",
")  c #345B73",
"_  c #335E79",
"`  c #345772",
"'  c #394966",
"]  c #35617A",
"[  c #38647E",
"{  c #3A667B",
"}  c #3B6269",
"|  c #404747",
" . c #414D53",
".. c #41565B",
"X. c #435B6A",
"o. c #446578",
"O. c #596871",
"+. c #716A62",
"@. c #6E777C",
"#. c #70787C",
"$. c #6B6862",
"%. c #56801F",
"&. c #5B851E",
"*. c #5E891D",
"=. c #618A1E",
"-. c #5C8321",
";. c #5A8320",
":. c #628625",
">. c #658C22",
",. c #6C8E25",
"<. c #69882A",
"1. c #6C9222",
"2. c #729624",
"3. c #759923",
"4. c #789B24",
"5. c #AE987F",
"6. c #B0997F",
"7. c #396682",
"8. c #3B6A84",
"9. c #3C6C8B",
"0. c #366686",
"q. c #3E718F",
"w. c #3F7393",
"e. c #3E7A9E",
"r. c #3B7699",
"t. c #3C6E90",
"y. c #3F7DA3",
"u. c #497188",
"i. c #417695",
"p. c #427A9C",
"a. c #487D9D",
"s. c #50758B",
"d. c #677B86",
"f. c #437EA1",
"g. c #892984",
"h. c #8F2888",
"j. c #4E819E",
"k. c #55849D",
"l. c #58859D",
"z. c #7A939C",
"x. c #6C8B9A",
"c. c #4480A5",
"v. c #4584AA",
"b. c #4886AC",
"n. c #4988AF",
"m. c #4C83A4",
"M. c #5B8DAB",
"N. c #5588A6",
"B. c #5E90AE",
"V. c #4487B0",
"C. c #4589B3",
"Z. c #4A8CB4",
"A. c #4B8FB8",
"S. c #468EBA",
"D. c #4D92BC",
"F. c #4790BD",
"G. c #5D95B5",
"H. c #5796BC",
"J. c #6993AB",
"K. c #659CBA",
"L. c #669AB6",
"P. c #749EB5",
"I. c #7196A8",
"U. c #7BA3B9",
"Y. c #7FA0AC",
"T. c #4F96C1",
"R. c #4F98C3",
"E. c #5098C4",
"W. c #7AA6C1",
"Q. c #92958D",
"!. c #AB9780",
"~. c #A6A69A",
"^. c #B4AC97",
"/. c #829CA6",
"(. c #84A2AD",
"). c #99A7A7",
"_. c #8EABB5",
"`. c #89A8B9",
"'. c #9AADB1",
"]. c #92B1BB",
"[. c #B7B7AA",
"{. c #AEB2B4",
"}. c #BEBFB0",
"|. c #B2B4B5",
" X c #A3ABAA",
".X c #9FA094",
"XX c #C9B395",
"oX c #DBBB94",
"OX c #C4AF92",
"+X c #E2BD91",
"@X c #C9BEA7",
"#X c #DFC19B",
"$X c #E3C199",
"%X c #EBC497",
"&X c #F5CB9B",
"*X c #D0C4AB",
"=X c #E7CEAB",
"-X c #E7CCA7",
";X c #FCD4A5",
":X c #FFD9A7",
">X c #FED7A8",
",X c #FFDAA9",
"<X c #F5D3AA",
"1X c #EED2AD",
"2X c #8EB3C9",
"3X c #91B5CB",
"4X c #8CB3CA",
"5X c #A6BDCB",
"6X c #ADC7D6",
"7X c #C9D2D8",
"8X c #C4D9E6",
"9X c #C7DAE6",
"0X c #DEE1E2",
"qX c #E2E4E4",
"wX c #E6E7E8",
"eX c #E5EDF1",
"rX c #EAF1F5",
/* pixels */
"9 9 9 0 0 9 q < 6 % * . +       . +       +   + + + + +                                             % r j 4.4.<.-.p 9 q q 9 9 q ",
"9 9 9 9 9 9 2 , 6 $ * X @ * * * X . * * + + * * * * + * * * * * + + @ * * + * + * * * * + $ * . . . o t j <.4.<.;.u 9 9 9 9 9 9 ",
"9 9 9 9 q q , ; 5 $ * * v b b b b b b b b b b * * * * * b b n n b J n n n n b n n n n m b n n b n J K t l <.<.:.g u 0 0 9 0 0 0 ",
"9 9 9 q 2 , , 6 % X * n L P U U U U P E E U U L v X X b L E ~ ^ ~ ~ ^ ~ ~ ~ ~ ~ ~ ~ ~ ~ ~ ~ ~ ^ Q / T ..k l j g d s s s s s s s ",
"0 0 q 2 , ; - O % $ * L U ) ) ] _ ` ( _ _ _ ) U b X @ N Q ] u.9.q.8.9.9.9.8.9.9.8.8.9.8.9.8.9.9.9.9.{ } ..k r a i f f f %.f f f ",
"9 9 q < ; & $ $ X * b P ) 8.i.i.i.r.w.w.i.i.8.^ P n m E 7.p.v.b.b.v.v.v.b.v.b.b.b.b.b.b.b.v.b.b.b.v.p.8.T J 7 1 y f ;.;.;.;.%.;.",
"q 2 < : 7 M = # @ * b U ) w.a.m.N.N.M.N.a.i.9.{ / ....o.i.b.A.D.D.D.D.D.D.D.A.D.D.D.D.D.D.D.D.D.T.F.b.w.) U J 1 p i h ;.%.;.%.%.",
", < : K A A V c x = n U ] i.b.L.W.W.`.I.a.u.o.u.O.d.d.x.N.N.A.D.D.D.T.R.R.E.E.H.E.E.D.D.E.D.E.E.T.T.Z.f.9._ ~ R R k u s s d f f ",
"; - 7 A C F D Z c # b U _ i.N.W.5X6X6X(.d.o.X.O.Q.).'._.L.M.C.C.D.D.D.R.E.E.E.T.T.T.D.T.E.T.D.E.T.T.A.n.f.i.8.} R 1 1 4 y u s s ",
"X % = A F H H F B x b I ( w.N.4X6X9X8X'.d.' ..@.).7X7X5X4XM.v.V.V.D.D.D.D.D.D.D.D.D.D.D.D.D.D.D.D.D.D.A.Z.b.p.[ T J 5 ; 2 4 0 u ",
"X $ M C G g.g.G B x b I ( w.M.4X8XeXqX{.#. . .#.{.0XeX8X4XM.f.v.V.A.D.Z.b.b.b.b.Z.D.D.D.D.D.D.D.D.D.D.A.Z.b.p.[ ! b % - < 9 0 0 ",
"  + M C G h.h.G Z x b I ( w.G.3X9XrXqX{.#. . .#.{.qXrX9X2XM.v.y.V.A.Z.v.p.q.q.p.c.A.D.D.D.D.D.D.D.D.Z.n.f.w.0.^ Y b % ; 2 0 s s ",
"X X z Z G h.h.G C z b I ( w.B.3X9XrXqX{.#. . .#.{.wXrX8X2XM.f.f.C.A.b.p.{ ) / [ p.b.D.D.D.D.D.D.T.D.Z.p.9.) ~ L v v % : 4 i d e ",
"X . x C G g.g.G B M b I ( w.B.4X8XeXqX{.#. . .#.{.qXeX8X2XB.v.v.C.A.b.i.) U U ) i.b.D.T.T.D.D.T.T.A.n.i.) P n * @ * % : r e %.%.",
"X * x V D H H D V z b I ( w.B.3X8XeXqX{.#. . .#.{.qXeX8X2XM.f.V.C.A.b.q.) U U ) q.b.D.T.T.D.D.D.T.D.v.i.) U b v @ v & 1 y f &.*.",
"  @ v c C F F Z c z b I ( w.G.3X9XrXqX|.#. .A d.{.qXeX8X2XG.f.v.V.A.C.i.{ ) ) { i.b.D.D.D.D.D.T.T.A.n.p.8.` E N v v % 1 y e *.*.",
". X @ x c V V c # @ b I _ w.B.3X9XrXqX|.#. . .#.|.qXrX8X2XB.v.y.C.A.Z.b.i.9.i.p.b.Z.D.D.D.D.D.D.D.D.Z.n.f.t.[ ! N v & : i g &.=.",
"* * * @ z x = = @ @ b P _ w.M.2X8XrX0X{.d. . .#.{.qXeX8X2XB.v.y.b.A.D.A.b.b.b.Z.Z.A.D.D.D.D.D.D.D.D.A.A.Z.b.p.7.E m & : a e &.*.",
"$ % % % $ * * # # z M ' ` u.a.`.6X9X7X{.d.....d.'.7X9X6X`.M.f.y.C.Z.D.D.D.D.D.D.D.D.D.D.D.D.D.D.D.D.D.T.T.A.b.9.! m & > r e &.*.",
"; 5 & % O * * # c V S S ' _ u.J.2X5X5X/.d.X.X.d./.6X6X3XP.N.f.V.C.A.D.D.D.E.D.E.D.D.D.D.D.D.D.D.D.D.D.T.T.T.b.t.^ N & > y e &.*.",
"< , ; 6 % X $ c C D D S  .' / s.M.`.`.I.a.u.u.s.J.U.`.P.B.m.c.v.b.A.D.D.D.E.D.D.D.D.D.D.D.D.D.D.A.D.D.T.T.T.b.t.^ n o 1 y e e *.",
"q q < , 6 X z V D H H D C M L / u.a.N.a.f.i.i.a.m.N.N.N.m.j.c.v.Z.A.D.D.D.D.D.D.D.D.D.D.D.D.D.D.D.D.D.T.T.A.b.9.Q n & > y e &.*.",
"9 9 2 , 6 $ M Z G g.g.G C M J U _ i.f.f.f.f.f.f.j.y.c.p.p.c.c.v.Z.A.D.D.D.D.D.D.D.D.D.D.D.D.D.D.D.D.D.T.R.D.v.9.Q m % > y e &.*.",
"0 0 2 , 6 $ M C H h.h.G Z x * I ` 9.f.f.f.f.f.f.e.e.e.e.e.p.c.v.n.D.D.D.D.D.D.D.E.D.D.D.E.D.T.T.T.T.T.R.R.T.n.9.Q m O > y e &.=.",
"0 9 q , 6 % z C H h.h.G Z x b I ( t.e.y.f.f.c.c.e.e.e.e.e.p.c.b.Z.A.D.D.D.D.D.D.D.D.E.D.E.D.D.D.T.T.T.T.E.T.b.t.^ n & : y e &.=.",
"9 9 q , 6 $ x C G g.g.G Z # b U _ w.f.f.c.c.p.p.f.p.p.c.p.c.c.v.Z.A.D.D.D.D.D.D.A.D.D.D.D.D.D.D.A.T.A.T.T.T.f.9.Q m & : y h &.*.",
"0 9 2 , 6 X z V D H H D V = b U ] w.f.c.c.p.f.p.c.p.p.c.c.p.c.v.b.A.A.D.D.D.D.Z.C.b.v.v.b.b.v.b.b.b.b.b.b.f.r.7.E b & : y d e &.",
"9 9 2 , 5 . z c C F F C V = b E ] w.f.c.c.c.p.c.p.p.c.p.e.e.j.c.v.b.Z.A.D.A.Z.b.p.q.9.9.8.q.9.9.9.9.t.t.t.t.7.` P v $ : 4 u f e ",
"0 9 2 , 6 X z x c V V c x # b U ] w.c.c.c.p.f.p.c.p.c.e.p.c.p.c.c.c.b.Z.A.A.b.p.8./ ! E ~ ^ ~ ^ ^ ! ! ^ ^ ^ E P n v $ 6 2 y s s ",
"9 9 q < 6 % @ v z z z # @ @ b U ] w.p.c.j.c.f.f.c.p.p.f.j.p.f.y.c.j.v.b.A.A.b.i.] U J b b m m m n N m N n m b v v * & 6 < 4 0 0 ",
"9 9 q < ; 5 & & * % & $ $ * v U ) 8.w.p.e.p.p.p.p.j.y.f.y.y.c.y.y.c.v.C.A.A.b.w.] P n * * * $ $ $ % % & & & & & $ & 5 : 2 9 0 0 ",
"9 9 9 2 1 1 < : : , 6 5 O * * L E ) [ 9.w.e.c.f.y.y.y.y.y.V.v.v.y.v.v.C.S.S.C.e.0.Q E L v * @ O o > > > > > : : : : 1 3 9 u s s ",
"9 9 9 0 y y y u u y r : 5 $ * v J P ~ ] 9.r.j.e.y.y.y.y.V.V.V.V.V.C.V.S.S.S.C.V.y.9._ W N v $ o > r y y y y y r y r y i i f f d ",
"9 9 0 u s g h e h h d 3 : & * @ * b L ~ ] r.e.c.y.j.c.m.C.Z.D.D.D.D.A.D.D.D.A.S.Z.n.e.7.E b & > r i e e e e e e e e e e e e %.%.",
"q 9 0 s f ;.&.*.*.&.h i 1 7 % $ * * b E ] q.y.m.j.k.l.M.B.L.K.K.K.K.K.K.K.K.K.K.K.K.N.u.~ m & > y e &.&.*.&.e &.e &.&.&.&.&.&.&.",
"9 9 0 s f %.*.*.=.*.&.g a 3 > - O $ b P ] w.j.k.x.z.z./.(._._._._._._._._._._.].]._./.d.X.K & > y e *.*.*.*.*.*.*.*.*.*.*.&.*.&.",
"q 9 0 i e %.&.*.=.*.&.%.g i r < - O b U _ w.j.x.z.Q.~.^.[.[.}.}.}.}.}.}.}.}.}.*X*X}. XQ.O.K & : y f =.*.*.*.*.*.&.*.*.*.&.&.&.&.",
"q 0 0 s f %.&.*.*.&.&.&.e e i r - % b P _ w.k.I.).~.OX#X#X-X=X=X=X=X=X=X=X=X=X=X1X=X@XQ.$.K & : y f &.=.*.&.&.&.&.&.&.&.&.&.&.&.",
"q 9 0 s f e &.&.h h e h e e i r > % b E _ w.l.z..XOX#X$X&X>X:X:X,X>X>X>X,X,X,X,X,X,X+X5.+.| & > y e &.=.*.&.&.&.&.&.&.&.&.&.&.&.",
"9 9 0 s g &.h h g i y y a y y > o % v Y ( u.l.z.~.OX$X%X&X:X:X:X:X:X:X:X,X,X,X,X,X>X+X6.+.| & > y e =.=.=.&.&.&.&.&.&.&.&.&.&.&.",
"q 9 u s f %.;.s p 1 < : : 1 > o O + v I _ w.k.z..XXX+X%X&X;X:X:X,X:X:X:X,X,X,X,X,X,X$X6.+.| & > i :.1.1.=.*.&.&.&.&.&.&.&.&.&.&.",
"9 9 0 s f &.h i 1 7 & & & & & $ * * b E _ r.k.z.~.OX+X%X&X;X:X:X,X>X>X>X>X>X>X,X,X,X$X!.+.| & t j ,.2.1.1.*.&.&.&.&.&.&.&.&.&.&.",
"9 9 0 s e %.h p : & @ v v v N m b L L Q ] i.k.z.~.OX$X%X&X;X;X:X>X>X>X>X>X>X,X,X,X:X$X!.+.| & 1 j ,.3.3.1.*.&.&.%.&.&.&.&.&.&.&.",
"q 9 0 s f e h a : $ @ N E W ! ^ ~ ~ / ] 9.p.l.z..XOX+X%X;X;X:X:X,X,X>X:X,X,X,X,X,X:X$X6.+.| & 1 l ,.3.3.1.*.&.&.&.&.&.&.&.&.&.&.",
"q 9 0 s f %.f y : & b P ` 0.9.q.q.q.q.r.r.e.k.z.~.OX+X%X&X;X:X:X,X>X>X>X,X>X,X,X,X,X#X6.+.K & r j ,.4.3.1.*.&.&.&.&.&.&.&.&.&.&.",
"9 9 0 f e %.h y > & b E 7.p.v.b.C.v.c.c.y.c.k.z..XOXoX%X&X;X:X:X>X>X>X>X>X>X>X,X,X,XXX5.+.| & 1 l ,.3.2.1.=.&.&.&.&.&.&.&.&.&.&.",
"q 9 0 s e e h y : & b E ] p.b.Z.Z.A.Z.C.c.c.k.x..X~.XXoX-X-X=X1X<X<X;X>X;X;X;X;X<X=X@X5.$.K 5 1 j ,.3.2.>.-.&.&.&.&.=.*.*.&.&.&.",
"9 9 0 s f e h y : & v P ^ 0.i.c.b.Z.Z.C.v.c.j.x.z.Q.~.~.[.[.*X*X-X%X&X&X&X&X-X-X*X*X~.Q.O.M 5 r j ,.3.1.>.h h h &.=.=.=.*.&.&.&.",
"q 9 0 s e %.h y : % v b P ! ` 9.p.c.b.b.v.f.j.l.x.x.z./.(._.'. XXX$X%X&X%X%X$X@X[.'./.s.X.K # r j ,.2.,.:.s s %.:.<.,.>.>.*.;.;.",
"9 9 0 f f e h y < & * @ v b U ^ 8.i.c.c.c.f.f.f.j.k.l.M.B.L.P.).[.XX+X+X+X+XXX[.'.P.M.u./ M o t j ,.2.,.-.s s %.:.2.2.2.>.=.&.&.",
"q 9 0 s h %.h i 1 7 & $ + * b U ) 0.w.e.p.p.f.f.f.c.v.C.V.D.L.P.).^.XXXXXXXX^.).P.L.v.9.W m & r j 2.2.:.l 0 s g :.2.4.2.>.*.&.&.",
"9 9 0 s f &.h g p 3 : & $ + * b E ` ] u.w.p.f.c.y.v.v.V.S.D.D.P.(.). X X^.~.).(.L.A.V.0.W m & r j ,.2.:.%.0 0 g :.2.4.2.1.*.&.;.",
"q 9 0 s f %.%.h g i r : o $ @ v N U E ) 9.i.f.v.b.V.V.S.F.F.H.H.L.U.Y.(.(.Y.P.L.K.H.f.t.W m & r j 2.2.<.g u u g :.2.3.3.1.*.*.;.",
"9 9 0 s f %.&.&.;.h d 3 : & * . * b L ~ [ i.f.n.Z.S.D.D.D.D.D.D.G.G.G.G.G.L.G.H.T.D.v.0.Q m & t j <.2.<.g u p g :.2.3.3.>.=.&.;.",
"9 9 0 s f %.&.*.&.&.h i 1 7 & * + $ b U _ i.f.b.Z.A.D.Z.C.b.v.v.v.v.n.n.Z.A.A.S.T.A.C.9.Q m & r j <.2.>.h s i h >.1.2.1.>.*.&.&.",
"q 9 0 s f %.&.*.=.*.;.g y 1 : o O $ b U _ w.c.Z.D.D.A.b.p.w.9.9.9.9.q.e.f.C.S.T.T.T.b.t.Q m & 1 l <.=.>.h f d h -.1.1.1.>.&.&.&.",
"9 9 0 u f %.&.*.*.&.%.h g i r : o $ b E _ i.c.A.D.D.S.j.9.` ^ E E Q ) 0.w.c.C.D.D.D.b.9.Q n & 1 u -.>.*.%.%.%.;.:.>.>.>.*.*.;.;.",
"9 9 0 s f %.&.&.&.&.&.&.&.h d r > % b P _ w.f.Z.A.A.b.i.) U m v v J P Q 0.r.v.V.A.A.b.q.Q n & : p ;.;.*.;.%.%.;.;.&.*.*.*.;.&.&.",
"q 9 0 s f %.&.*.&.&.&.&.&.%.d y : % b P ` 9.i.f.v.c.p.{ / J % O X X b Y / 9.w.j.b.v.p.{ ~ J ; 1 i h *.*.*.*.*.;.*.&.&.&.&.&.&.&.",
"9 9 0 s f %.&.&.*.&.&.&.%.e s 4 : & v N E ^ ] 7.9.8.{ } R 1 > - O $ * J U ^ ] 0.8.8.{ } R 8 3 y s ;.;.=.>.>.1.=.=.&.;.&.&.&.&.&.",
"9 9 0 s f %.&.&.&.&.&.%.e f 0 2 6 $ * v L P U ! ! ~ T R k p 3 > - $ * v L P U ! E ~ ~ R w p i d h e &.=.1.1.1.1.=.&.&.&.;.&.&.&.",
"q 9 0 s f %.&.*.&.&.%.f s u 4 < 5 % * v * b n b b b J 8 k i i p : % * * X b b b b n J 8 k i e e &.&.*.,.1.3.3.1.>.*.&.;.&.&.&.&.",
"q 9 0 s f %.&.*.*.&.%.f i 0 2 , 6 % * + * * . @ . * 5 < i h h p 1 & * . . @ X * . * & : p h &.*.&.&.*.>.1.4.3.1.1.*.&.&.&.&.&.&.",
"9 9 0 s f %.&.&.*.&.%.f s 0 2 , - $ * . .           O 1 i e h i 1 & * . .         + O : i h *.*.*.&.*.1.3.4.4.2.1.*.&.&.;.&.&.&."
};
