/* XPM */
static char *coll_resized[] = {
/* columns rows colors chars-per-pixel */
"64 64 181 2 ",
"   c #3E5D2E",
".  c #3A4E3B",
"X  c #3C4E36",
"o  c #3D5333",
"O  c #3C513C",
"+  c #366026",
"@  c #396426",
"#  c #3E6925",
"$  c #547E1F",
"%  c #405F2D",
"&  c #444C36",
"*  c #494E35",
"=  c #5B4A36",
"-  c #514C36",
";  c #435534",
":  c #4C5335",
">  c #465D30",
",  c #495E32",
"<  c #42573A",
"1  c #465A3E",
"2  c #4B5E38",
"3  c #525533",
"4  c #5A5434",
"5  c #565C33",
"6  c #5A5E35",
"7  c #5A5F39",
"8  c #634D35",
"9  c #7E4C35",
"0  c #734C35",
"q  c #665234",
"w  c #6B5535",
"e  c #635C36",
"r  c #6D5A35",
"t  c #735134",
"y  c #7B5335",
"u  c #725B35",
"i  c #436D24",
"p  c #4A6E27",
"a  c #46652C",
"s  c #49652C",
"d  c #4A692B",
"f  c #556E27",
"g  c #516E2D",
"h  c #5F6C2C",
"j  c #457023",
"k  c #4D7424",
"l  c #4E7921",
"z  c #517526",
"x  c #557D22",
"c  c #587F21",
"v  c #52752A",
"b  c #557929",
"n  c #5B7B2A",
"m  c #4C6333",
"M  c #4E6A32",
"N  c #4C623B",
"B  c #526533",
"V  c #596133",
"C  c #516936",
"Z  c #5E633E",
"A  c #536B39",
"S  c #557233",
"D  c #647727",
"F  c #607923",
"G  c #637C2A",
"H  c #687A2D",
"J  c #767329",
"K  c #7B742B",
"L  c #62693C",
"P  c #756334",
"I  c #786633",
"U  c #7A6A31",
"Y  c #7A6738",
"T  c #7D6A3C",
"R  c #657135",
"E  c #3D5041",
"W  c #425541",
"Q  c #475C40",
"!  c #814F34",
"~  c #8B4E34",
"^  c #944E34",
"/  c #994E34",
"(  c #845235",
")  c #8A5235",
"_  c #8B5B34",
"`  c #935135",
"'  c #9C5334",
"]  c #A64C34",
"[  c #A94C34",
"{  c #AB5434",
"}  c #B15334",
"|  c #B45B33",
" . c #B95F33",
".. c #807D27",
"X. c #847C2C",
"o. c #9F7A2D",
"O. c #806F3B",
"+. c #946633",
"@. c #9B6E34",
"#. c #847535",
"$. c #9F7233",
"%. c #A27D2D",
"&. c #A86033",
"*. c #B76133",
"=. c #BB6533",
"-. c #B36E33",
";. c #A07433",
":. c #A47933",
">. c #A37638",
",. c #A87C34",
"<. c #BD7932",
"1. c #C26C33",
"2. c #C47132",
"3. c #CA7333",
"4. c #C27E33",
"5. c #CD7932",
"6. c #D17E32",
"7. c #57811F",
"8. c #5B851E",
"9. c #5E881E",
"0. c #62861F",
"q. c #628B1F",
"w. c #578121",
"e. c #5A8222",
"r. c #628623",
"t. c #6B8521",
"y. c #658C22",
"u. c #6A8E23",
"i. c #64822E",
"p. c #768622",
"a. c #798623",
"s. c #718E22",
"d. c #738728",
"f. c #6C9222",
"g. c #729623",
"h. c #7D9425",
"j. c #759924",
"k. c #799B25",
"l. c #729229",
"z. c #658231",
"x. c #848425",
"c. c #898625",
"v. c #858C25",
"b. c #878229",
"n. c #938527",
"m. c #9F8629",
"M. c #90882A",
"N. c #988F29",
"B. c #819726",
"V. c #8A9526",
"C. c #849926",
"Z. c #959528",
"A. c #9A9329",
"S. c #A6812B",
"D. c #AA852A",
"F. c #A78C2B",
"G. c #B0862C",
"H. c #BB852D",
"J. c #B48E2D",
"K. c #BB8C2E",
"L. c #A5932B",
"P. c #AD902C",
"I. c #AA8031",
"U. c #C7862F",
"Y. c #C38B2F",
"T. c #C48132",
"R. c #C98530",
"E. c #CB8930",
"W. c #D58532",
"Q. c #DA8633",
"!. c #DA8A33",
"~. c #DF9035",
"^. c #E18C34",
"/. c #E39336",
"(. c #E89737",
"). c #E69837",
"_. c #E99837",
"`. c #E79A38",
"'. c #EA9C38",
"]. c #EDA13A",
"[. c #F1A63B",
/* pixels */
"@ @ @ @ @ @ + @ @ @ @ @   + @ + + @ + @ @ + + @ + + @ + + @ @ @ + @ @ + @ @ @ @ @ @ @ @ @ + @ + + @ # b y.l.l.y.b # @ + + + @ + ",
"@ @ @ @ @ @ @ @ @ @ @ @ @ @ @ @ @ @ @ @ @ @ + + # @ @ # # @ @ @ @ @ @ @ @ @ @ @ @ @ @ @ @ @ @ @ + @ # w.y.l.l.y.b i @ + @ @ @ # ",
"@ @ @ # # # # i # i # i # # # # # # # # # # # # # # # # # # # # # # # # # # # @ @ @ @ # # # # # # # p w.y.l.l.y.w.p # # # # # # ",
"@ @ @ # i i i j i i i i j j j j j j j # j j j j j j j j # j j i j # j j j j j # # @ @ # j l w.j i i v w.y.j.j.u.w.k j i j j p j ",
"@ @ @ i j k $ k l l l l l l l l k l l l l l l l j 7.l l l l k l l l l l l l j j # @ @ j b w.e.w.w.b w.e.g.j.j.f.e.x l l l l l l ",
"@ @ i i k $ 7.7.7.7.7.7.7.7.7.7.e.8.7.7.$ 7.$ $ 7.7.7.7.7.$ 8.$ 7.7.7.7.7.7.7.j i a # l e.f.l.u.e.w.e.e.f.j.j.g.y.8.7.7.w.w.7.w.",
"@ @ i j l 7.8.8.8.8.8.8.8.8.8.0.0.0.t.t.t.t.t.t.9.q.0.p.0.t.t.0.0.0.0.p.p.0.8.$ z f v G d.h.C.h.g.y.y.f.g.j.j.g.f.y.9.8.w.8.7.7.",
"@ @ @ j l 7.8.8.8.8.8.8.8.8.0.0.a.x.c.c.c.c.c.c.x.x.c.c.c.c.c.c.c.c.c.c.c.c.x...K J K X.M.A.Z.V.j.f.f.f.j.k.k.j.g.f.y.e.w.l l l ",
"@ @ # j l 7.8.8.9.8.8.8.8.8.9.p.c.m.D.D.F.D.D.D.D.D.D.D.D.D.D.D.D.D.D.D.D.D.S.S.o.o.%.%.G.J.P.A.V.j.g.j.k.k.k.k.j.g.f.r.w.k j i ",
"@ @ # j l 8.8.8.8.8.8.8.8.8.0.x.S.H.U.E.E.R.U.U.U.U.U.U.T.R.R.R.R.R.U.R.R.R.U.R.U.H.T.R.R.E.Y.P.Z.C.j.k.k.k.k.k.k.j.f.r.b j # @ ",
"+ @ # j l 7.8.8.8.8.8.0.0.0.a.n.D.R.Q.Q.!.!.!.!.!.!.!.!.!.!.!.!.!.!.!.!.Q.!.!.!.!.!.!.Q.Q.W.E.K.L.Z.C.k.k.k.j.k.k.j.f.y.x j # @ ",
"@ @ # j l 7.8.8.9.8.0.0.a.x.n.D.H.W.Q.^.^./.^.(./././././././././././././.(././.(././.^.^.!.W.Y.J.L.A.V.h.j.g.g.g.g.f.e.x k j j ",
"@ @ i i l w.8.8.8.8.0.p.c.m.D.H.R.W.!.^./.(.(.'.'.'.'.'.'.(.'.'.'.'.(.'.'.'.'.'.'._.(./.^.Q.W.E.Y.K.P.N.v.g.q.q.y.f.y.e.w.x l l ",
"+ @ # j l 7.8.8.8.8.t.x.S.H.U.W.W.W.!.!.(.'.].].[.'.].].].].].].].].].].].].].].].].'.(.^.!.W.W.E.E.K.F.c.s.q.8.8.9.9.8.w.w.7.x ",
"@ @ # i l 7.e.w.7.e.p.b.D.U.!.Q.!.!.!.).'.].].[.[.].].'.].].].].].'.].].'.].].].[.[.'.'.).!.!.!.Q.W.U.D.c.0.8.8.8.8.8.8.8.8.8.8.",
"@ @ i j l 8.e.w.x b H X.%.U.Q.^.^.~.).(.'.[.[.].].'.(.(.`.`.`.`.(._._._.(.'.'.'.].[.[.'.).).^.^.^.Q.R.D.x.q.8.8.7.8.8.8.8.8.8.8.",
"+ @ @ j $ 7.e.x v S R #.I.R.!.^./.(.'.'.[.[.].'.).~.~.~.~.~.~.~.~.~.~.~.~.~.).`.'.[.[.[.'.'.(./.^.!.R.D.c.0.0.8.8.8.8.8.8.8.8.8.",
"@ @ i j l $ e.b S A L T >.T.Q./.(.'.'.[.[.[.].'.).~.!.!.!.!.!.!.!.!.!.!.!.!.~.~.'.].].[.[.'.'.(.^.!.R.D.c.p.8.8.7.8.8.8.8.8.8.8.",
"@ @ @ j l c c v C N L T >.T.!./.'.].[.[.].].'.`.~.!.!.W.!.!.!.!.!.!.!.!.!.!.~.~.`.'.].[.[.[.].'.^.!.U.D...D $ $ 7.8.8.8.8.8.8.8.",
"@ @ i i l w.e.v N 2 7 O.>.T.!.(.'.].[.].].`.).).).~.~.~.~.~.~.~.~.~.~.~.~.~.~.)./.`.'.'.].[.[.'./.Q.U.%.X.D b x 7.7.8.8.8.8.8.8.",
"@ @ i j l 7.e.z d , 6 Y ;.4.!./.'.].].].`.).~.~.).).).).`.`.`.`.).).).).).).).~./././.`.'.].].'.(.!.4.%.U h d k $ 7.8.8.8.8.8.8.",
"@ @ # j l w.c k d > 6 I ;.U.!./.'.].].`.).!.~.~.).].].].].].].].].].].].].].'.).~.!.~./.'.].].'./.!.U.;.U V s d l 7.8.9.8.8.8.8.",
"+ @ # j l c c k s > 5 P ;.4.!./.(.].].`.~.!.!.~.`.].[.[.[.].[.[.[.[.].[.[.[.].).~.!.!.~.).'.[.'.(.Q.4.$.I 5 % a k $ 8.8.8.8.8.8.",
"@ @ # j l c c z p > 5 U ;.4.Q._.'.].].`.~.!.!.~.`.].[.[.[.[.[.[.[.[.[.[.[.[.].).~.!.!.~.'.].'.'.(.Q.4.$.P 3 ; a p $ 8.8.8.8.8.8.",
"@ @ @ j l $ $ z s > V I ;.4.Q./.'.'.].(.~.!.!.~.`.].].[.[.[.[.[.[.[.[.[.[.[.].`.~.!.!.~.`.].].'./.!.4.@.u : o @ p c 8.8.9.8.8.9.",
"@ @ i j $ $ $ z s > 5 I ;.4.Q./.'.[.].(.~.!.!.~.`.].[.[.[.[.[.[.[.[.[.[.[.[.].`.~.!.!.~.).].].'./.!.4.@.u : o   p c 8.0.8.8.8.8.",
"@ @ # j z $ x z s > V P ;.4.Q./.'.].].`.~.!.!.~.`.].[.[.[.[.[.[.[.[.[.[.[.[.].`.~.!.!./.`.].].'.(.Q.4.@.u : X   p x 7.8.7.$ 7.7.",
"@ @ i j $ $ $ z s > V P ;.U.!./.'.].].`.~.!.!.~.`.].[.[.[.[.[.[.[.[.[.[.[.[.].`.~.!.!.~.`.].'.'./.!.H.@.u * X   p x 8.$ $ $ l l ",
"+ @ # i $ $ c z s > 5 I ;.4.Q._.'.].].)./.!.!.~.`.].[.[.[.[.[.[.[.[.[.[.[.[.].`.~.!.!.~.'.'.].'.(.!.4.@.r : o   p $ $ $ l j j j ",
"@ @ i j $ $ $ k p > V P ;.4.Q._.'.].].(.~.!.!.~.`.].].[.[.[.].[.[.[.[.[.[.[.].`.~.!.!.~.'.].].'./.!.4.@.r : o   p $ $ $ k i # # ",
"@ @ @ j l $ c z s > V I ;.4.Q./.'.'.[.(./.!.~.~.).`.].].].].].].].'.].].].].'.`.~.!.!.).'.'.].'./.Q.4.@.r : o % p $ $ $ k i # # ",
"@ @ i i $ $ x z a % 5 I $.4.Q._.'.[.[.'.)././.~.).).).`.`.`.`.`.`.`.`.`.`.`.`.~./././.'.'.].].'.(.!.4.@.P : ; % f $ $ $ l j j i ",
"  @ # j $ $ $ k p > 5 I $.4.Q./.'.].[.].].`.).~./.~.~.~.~.~.~.~.~.~.~.~.~.~.~.~.).).`.].].].].'./.!.4.$.u 5 % % f $ 8.7.$ $ $ k ",
"+ @ # j $ $ $ z s > 5 I $.U.Q._.'.].[.].].].].).~.~.!.!.!.!.!.!.!.!.!.!.!.!.~.~.).].].].[.].].(./.!.4.;.P 5 > s z $ 7.8.7.7.$ $ ",
"+ @ # j $ $ $ z s % 5 I ;.U.Q./.).].].].[.].].]./.~.!.!.!.!.!.!.!.!.!.!.!.~.~.~.`.].].[.[.].].)./.!.4.;.I V % s k $ 8.8.8.8.8.8.",
"@ @ a i $ $ $ f s > 5 I ;.4.Q././.).].].].[.].].`./.~.~.~.~.~.~.~.~.~.~.~.~.~.'.].[.[.].].`.).).^.!.T.;.I 5 , p p c 8.0.9.8.8.8.",
"@ @ # j $ $ b z s > V I ;.U.W.^.^.~./.).].].[.].].`.`.`.).).`.).].~.].~.`.`.`.].].[.[.].(././.^.^.!.T.;.I 6 > s z 7.8.8.8.8.8.8.",
"+ @ # l $ $ $ f p > V P ;.4.W.Q.!.!.~./.).].].[.].].].].].].].].].].].].].].].].].].].'./.~.!.Q.Q.W.4.;.I V % s z $ 8.9.9.8.8.8.",
"@ @ # j $ $ $ z i > 5 P $.<.6.W.W.W.!.~.).].].].].].].].].].].].].].[.].].].].].].].'.).~.!.Q.W.Q.6.<.@.P 5 % s k $ 8.8.8.8.8.8.",
"+ @ # j $ $ $ z d > 5 u +.-.3.5.6.W.!.~.~.).).].`.`.].`.'.`.'.'.~.].`.'.`.'.'.`.'.`.).~.~.!.W.6.5.3.-.+.u 5 > s z $ 8.9.8.8.8.8.",
"@ @ # j $ $ $ $ s > 3 u _ &.=.2.5.W.Q.~.~.~././././././././././.~.~.~.`./././././.~.~.~.!.!.W.5.2.=.&._ r 5 > s z $ 8.8.8.8.8.8.",
"@ @ i j l $ $ z d > 3 q ( ' } 1.3.6.W.Q.Q.!.!.!.!.!.!.!.!.!.!.!.~.!.!.!.!.!.!.!.!.!.!.!.!.W.6.3.1.| ' ( q 3 > s z c 8.8.8.8.8.8.",
"@ @ # j $ $ $ z i > 3 8 ! / {  .1.3.5.6.W.6.R.6.6.6.6.6.R.6.6.6.6.6.E.W.W.6.6.6.6.6.W.6.W.6.5.1. .{ / 9 q 3 > d z $ 8.8.8.8.8.8.",
"+ @ # j $ $ $ f a ; * 8 9 / [ | 1.1.2.3.2.2.2.2.2.2.2.2.1.2.2.2.2.1.1.<.1.2.2.2.2.2.2.2.2.2.1.*.| [ / ! 8 3 % d z c $ 0.8.8.8.8.",
"@ @ i j $ $ $ z a o * 8 9 / [ } | *.*.*.*.*.*.*.*.*.*.*.*.*.*. .*.*.*.*.*.*.*.*.*.*.*.*.*.*.*.| } { / 9 q 3 % d z $ 8.8.8.8.8.8.",
"+ @ i j k $ c p % o & = 9 ^ [ [ { { { { { { { { { { { { { { { { { { { { { { { { { { { { { { { { [ ] ^ ! q 3 , s z $ 8.8.8.8.8.8.",
"@ @ @ j $ 7.x p % o & = 0 ~ / / ] ] ] ] ] ] ] ] ] ] ] ] ] ] ] ] ] ] ] ] ] ] ] ] ] ] ] ] ] ] ] ] ] / ~ y 4 3 % s z e.q.9.9.8.8.8.",
"@ @ i i l $ $ f a o & - 8 t ( ^ ^ ] ] [ [ ] ] ] ] ] ] ] ] ] ] ] ] ] ] ] ] ] ] ] ] ] ] ] ] ] ] / ` ) y q = * > d b r.q.q.q.0.8.8.",
"@ @ # j k $ $ f s ; & * 3 q w ! ^ / [ [ [ [ ] [ ] ] ] [ ] ] ] ] ] ] ] ] ] ] ] ] ] ] ] [ [ ] ' ` ) y r 3 : X ; d n u.f.f.y.9.8.8.",
"  @ # j $ $ $ z d % ; ; : : 8 w ( / ] ] ] ] ] ] ] ] ] ] ] ] ] ] ] ] ] ] ] ] ] ] ] ] ] ] [ ] / ) u e 5 : X X ; d G u.j.f.q.9.8.8.",
"@ @ # j $ $ $ b f s > > % ; 3 4 y ~ ^ / / / / ^ / ^ ^ / / / / / / ' / / / / ' ^ / / / ' / / ` ( r 6 2 < O . < M G l.j.g.f.9.8.7.",
"@ @ # j $ $ 0.$ z d s > % ; > 3 q y ! ! ! ! ! ! ! ! ! ! ! ! ! ! ( ( ( ( ( ! 9 ( ( ( ( ) ) ( y u e V 2 < O . < A z.l.k.g.y.9.8.8.",
"+ @ # j l $ 7.7.c z z s , ; ; : 4 8 q q q q q 8 q q 8 q q q w w w w r w w q q w w w r u u u w e 6 m 2 1 < E Q A z.g.j.j.f.9.9.8.",
"@ @ # j $ 7.8.8.8.$ x f s , ; > : 3 3 3 3 3 3 3 3 3 3 4 3 3 3 5 5 6 6 6 5 3 3 5 7 7 6 7 6 V 6 V V N 2 1 W W Q A z.g.j.g.y.9.8.7.",
"@ @ i j l $ 8.0.0.7.F $ d s , ; > > > > % > , , > > > > % > > s m B B m m > m m m B V B B B B B B B B 2 1 1 N S i.l.g.f.q.9.8.8.",
"+ @ # j l $ 8.8.0.8.$ $ z f d d d s d d d d d d i s s i d s d d d g g d d d d d d d v C g g g f g g C g m N M S i.u.f.f.q.9.8.8.",
"@ @ # i l 7.8.9.8.8.7.8.c b f x x z z z z z b z z z z z z z z z b b b b z z z b b x b b b b b b b b b z z S v c e.y.y.q.9.8.8.8.",
"+ @ # j l 7.8.9.9.8.8.8.$ $ c $ $ 7.$ c c $ c c c $ $ $ $ $ 7.$ c 7.c 8.$ $ c $ $ 7.$ c F $ 8.7.$ e.e.8.c c e.7.r.e.9.8.9.8.8.8.",
"@ @ # j l $ 8.8.8.8.8.7.$ $ $ 8.7.8.8.7.$ $ $ $ 7.8.8.8.8.8.8.8.8.8.8.8.8.8.8.8.8.8.8.8.8.8.8.8.8.8.8.8.e.r.q.9.9.8.8.8.8.8.8.8.",
"@ @ # j $ 7.8.8.8.8.8.7.$ x $ $ 7.8.8.7.$ $ $ $ 7.8.8.9.0.8.9.8.8.8.8.8.8.8.8.0.9.8.8.9.9.8.8.8.8.8.9.q.y.y.y.q.9.9.8.8.8.8.8.8.",
"+ @ i i $ $ 7.0.8.8.$ $ z k j l $ 7.7.$ l k k l $ 7.8.8.8.8.8.9.8.8.8.8.8.8.8.8.8.8.8.8.8.8.8.8.8.8.q.q.f.f.f.f.q.8.8.8.7.8.8.8.",
"@ @ i j l 7.8.8.0.8.$ $ k i i k $ 7.7.$ j i i j $ 7.8.8.0.8.8.8.8.8.8.8.8.8.8.8.8.8.8.8.8.8.8.7.8.8.q.q.f.g.g.f.y.0.8.8.8.8.8.8.",
"+ @ @ j l 7.8.8.9.8.7.l j # # j l 7.7.l j # # i $ 7.8.9.8.8.8.8.8.8.8.8.8.8.8.8.8.8.8.8.8.8.8.8.7.8.0.q.g.j.j.f.f.9.8.7.7.8.8.8.",
"+   i j l 7.8.9.8.8.$ l i # @ i l 7.7.l i # # i k 7.8.8.8.8.8.8.8.8.8.8.8.8.8.8.8.8.8.8.8.8.8.8.8.8.q.f.g.k.k.g.f.9.8.8.8.8.8.8."
};
