/* XPM */
static char *end_resized[] = {
/* columns rows colors chars-per-pixel */
"64 64 141 2 ",
"   c #373F3E",
".  c #37403E",
"X  c #3A423F",
"o  c #3F4F3B",
"O  c #404D3A",
"+  c #445635",
"@  c #465835",
"#  c #4C5D34",
"$  c #44553A",
"%  c #4A573E",
"&  c #46593A",
"*  c #4B5B3B",
"=  c #505E3E",
"-  c #4F6A2D",
";  c #516D2D",
":  c #5A7D25",
">  c #55722C",
",  c #58722B",
"<  c #5D7B2A",
"1  c #4C6532",
"2  c #4E633C",
"3  c #506432",
"4  c #546D31",
"5  c #54643E",
"6  c #536C3D",
"7  c #586A3F",
"8  c #577333",
"9  c #5B7433",
"0  c #5E7832",
"q  c #5B773C",
"w  c #5D783C",
"e  c #627B2C",
"r  c #607732",
"t  c #647B35",
"y  c #687F37",
"u  c #60733C",
"i  c #667C3A",
"p  c #687F39",
"a  c #343747",
"s  c #343847",
"d  c #383E45",
"f  c #34364C",
"g  c #363A4A",
"h  c #393C4D",
"j  c #3C3E53",
"k  c #3C4443",
"l  c #3F4A44",
"z  c #3D4349",
"x  c #3E4353",
"c  c #3F4058",
"v  c #414945",
"b  c #40474D",
"n  c #444C4C",
"m  c #465146",
"M  c #495442",
"N  c #4E5D41",
"B  c #47524A",
"V  c #4B564A",
"C  c #4D5A4A",
"Z  c #505F40",
"A  c #535E4E",
"S  c #404456",
"D  c #464C55",
"F  c #494F55",
"G  c #43455C",
"H  c #46495D",
"J  c #494E5E",
"K  c #4C5256",
"L  c #4F5A56",
"P  c #4D535B",
"I  c #525B56",
"U  c #50565D",
"Y  c #535B5D",
"T  c #4D6240",
"R  c #556345",
"E  c #596747",
"W  c #556F40",
"Q  c #5D6C44",
"!  c #56634B",
"~  c #596649",
"^  c #576949",
"/  c #5D6B4C",
"(  c #5F7042",
")  c #556453",
"_  c #5A6657",
"`  c #576951",
"'  c #5D6D52",
"]  c #57615E",
"[  c #596459",
"{  c #5F6C5A",
"}  c #606F4C",
"|  c #627443",
" . c #657A42",
".. c #697D45",
"X. c #62734D",
"o. c #606F55",
"O. c #627252",
"+. c #637258",
"@. c #434361",
"#. c #474960",
"$. c #494C63",
"%. c #4B4C68",
"&. c #4D5065",
"*. c #4F526B",
"=. c #505666",
"-. c #535B63",
";. c #51566B",
":. c #545A6C",
">. c #566161",
",. c #596363",
"<. c #596268",
"1. c #5F881F",
"2. c #618C1C",
"3. c #67901C",
"4. c #68911E",
"5. c #70971F",
"6. c #70981E",
"7. c #5F8126",
"8. c #5E822A",
"9. c #618326",
"0. c #688627",
"q. c #658C21",
"w. c #6A8B26",
"e. c #63852B",
"r. c #678829",
"t. c #6C8C2B",
"y. c #718F2B",
"u. c #6E9323",
"i. c #749526",
"p. c #759923",
"a. c #7B9D25",
"s. c #74912D",
"d. c #78962D",
"f. c #789828",
"g. c #6A8236",
"h. c #6F8935",
"j. c #6B823C",
"k. c #708B32",
"l. c #7EA222",
"z. c #6C8242",
"x. c #80A323",
/* pixels */
"@.@.@.@.@.@.@.@.@.@.@.@.@.@.@.@.@.@.@.@.@.@.@.@.@.@.@.@.@.@.@.@.@.@.@.@.@.@.@.@.@.@.@.@.@.@.@.@.@.@.@.@.@.@.@.@.@.@.@.@.@.@.@.@.",
"G G #.G H H G @.G G H G G G G @.G G G @.G G G G G #.@.G G G @.G G G G G G G G G H G G G H @.H H G @.G G H G G H @.G H H @.G @.G ",
"K K K K U F K K U K K K K K K K F F F F K K K K K K K K K K K K K K K K K K K K K U K K F U F K K P P K K K K P K K K K K K K K ",
"! ~ ! ~ E E E E E ~ E ~ ~ E ~ } } ~ ~ } } ~ ~ ~ ~ ~ 5 } ~ } ~ ~ ~ } ~ ~ ~ ~ ~ / E E E E E E E E ~ E E E ~ ~ ~ ~ } A } Z ~ ~ ~ ~ ",
"i i i i i p i p p p p i p p p p i p y i y y y y p p p y p p p p p p y y p p p p i j.y i g.i i i p p p p p p p p p p p p i i i i ",
"s.s.s.s.s.s.s.s.s.s.s.s.s.s.y.s.s.s.s.s.s.s.s.s.s.s.s.s.s.s.s.s.s.y x.k.x.y y x.y.s.y.s.s.s.s.s.s.s.s.s.s.k.s.s.s.s.s.s.s.s.k.s.",
"a.a.a.f.d.s.s.s.s.s.s.s.s.s.s.s.s.s.s.s.s.s.s.s.k.s.s.s.s.s.s.s.s.s.x.y x.k.x.y s.s.s.s.s.s.s.s.s.s.y.s.s.s.s.y.y.s.s.i.s.x.x.x.",
"x.a.a.s.y.g.p i i i p i i p p i i p i p p p y y y y y y p y y y y y y p u y y y y y y j.i i j.i p p p p p p p p p p y k.s.i.x.x.",
"x.x.f.k.i | E ~ A } ~ ~ ~ ~ ~ ~ E ~ ~ ~ E } } A } ~ 5 } 5 } A } ~ ~ } 5 } E E E E E E } ^ ^ ~ ~ ~ ~ ~ ~ ~ ~ ~ ! ~ ~ 7 i k.y.x.x.",
"a.a.d.j.| A K K K F K K K K K K K K K K K K K K F K K K K K K K K K K K K K K K K K F F K K K K K K K K K K K K F K A } y x.x.x.",
"x.a.s.p ~ U H H H K K K K K K K K K P P H J #.#.#.#.@.#.H H H #.#.#.#.#.$.H #.#.#.H H H J F F P F K K K K K K J #.#.I } i y.s.x.",
"x.a.s.p / U =.=.I A ~ ~ ~ ~ ~ ~ ~ ~ A I U $.&.%.%.%.%.$.#.@.@.#.#.%.%.%.%.%.%.%.%.&.$.P K C C T ! ~ ! / E ! A U U $.U } p y.x.x.",
"x.x.s...o.-.-.Y } | i u p p p p y y i } o.-.;.*.*.*.*.%.#.#.#.%.%.*.;.;.;.;.;.*.*.;.-.I ! 6 8 8 t i i i i i  .' [ -.-.o.p h.x.x.",
"6.x.d.j.O.,.,.o...h.k.x.s.s.s.s.y.y.h...o.:.:.:.:.:.;.*.$.#.#.#.;.;.:.:.:.:.:.:.:.:.-.) 6 8 7.7.0.y.y.d.s.s.h...o.,.,.O...x.x.x.",
"p.p.y...o.] Y } ..s.i.5.i.y.s.y.y.y.g.i o.-.:.;.;.;.&.&.H G H #.&.&.;.:.;.;.:.:.:.:.-.! 6 8 7.1.0.w.y.f.i.p.s...o.>.Y o.p s.s.x.",
"6.i.t.t ~ I I A t y.u.u.0.e e r e r r 7 A U P $.J J P H S S S S G K P $.$.P $.&.*.;.-.I T - - ; , r e 0.u.u.w.t ~ I I E u 0.w.u.",
"4.2.e 8 N B n N 8 9.q.: , 3 # # # # * % v S S b x x x j h h j h h x x b b S S H $.$.J F m + O + @ # 3 , 7.q.9.8 N n n N 8 8.q.4.",
"2.q.: ; $ k k $ ; : : > # O X d X X X d d d g g g g d s s s s s g g s g g g h j S H H S z       X X O # , : : ; & k k & - : 7.2.",
"2.2.: ; $ k k $ ; : : ; @ k a a f s s f s s s s a a a a s s s s s s s a s s g h S G G j h g f f a s X @ ; : : ; + k k $ - : 1.3.",
"4.q.< 4 & k k & ; 9.9.> * k f f f f f h g g g g g g g g g g g g g g g g f g h j c G G c j h f f f f k * ; 9.7.> & k k & 4 7.2.4.",
"p.u.e.9 N b n N 0 0.r.0 = S j j j j j j j j j j j j j j j j c j j j h j j j j j G G G G c j j j j j b R < r.0.0 * n b N 9 r.u.6.",
"p.f.y.i R F K R i y.y.i E F c G j G G G S G G G G G G S G G G G G G G G G G G G G G G G G G G @.@.j F ~ i t.t.i R K K R t h.p.l.",
"l.a.s.i ~ K P !  .h.k. .~ U #.@.@.%.#.H #.G G #.#.#.#.#.H H #.#.#.#.H #.#.#.#.#.#.#.#.#.#.#.#.H @.#.K ~ i h.h...) U P ~ i s.a.l.",
"l.a.d.j./ Y -.[ O...z.X._ U =.%.%.%.%.$.#.#.#.#.$.&.&.&.&.&.&.&.&.&.&.&.&.&.&.&.&.&.&.$.&.&.&.&.%.*.-.[ X.z...O.[ U Y ' j.d.a.l.",
"l.a.d.j.O.>.-.,.{ +.+.+.,.-.:.:.:.;.;.%.$.#.#.$.&.;.;.=.:.:.;.;.;.;.:.;.;.:.;.;.:.;.;.;.:.;.:.;.:.:.:.,.+.+.+.,.,.-.[ O.z.d.a.x.",
"l.a.d.j.O.,.:.:.<.<.<.<.<.:.:.:.:.:.;.=.$.#.#.$.;.:.:.:.:.:.:.:.:.:.:.:.:.:.:.:.:.:.:.:.:.:.:.:.:.:.:.:.<.<.<.<.:.:.,.O.j.d.a.x.",
"l.a.d.z.O.,.:.:.:.:.:.:.:.:.:.:.:.:.;.=.$.#.@.&.&.=.:.:.:.:.:.:.:.:.:.:.:.:.:.:.:.:.:.:.:.:.:.:.:.:.:.:.:.:.:.:.:.:.<.O.j.d.a.a.",
"l.a.d.j.O.,.;.*.*.*.;.:.;.;.;.;.;.;.;.%.$.#.H $.&.;.;.:.;.;.;.=.:.;.;.;.:.;.;.:.;.;.;.;.:.;.;.;.:.;.;.;.:.:.*.;.*.:.>.O.j.d.a.x.",
"x.a.s.j./ -.*.%.*.%.%.%.%.&.%.=.=.&.&.$.#.#.#.#.$.&.&.&.&.&.&.&.&.&.&.&.=.&.&.&.&.&.&.&.&.&.&.&.=.&.&.%.%.%.%.%.%.&.Y / j.d.a.x.",
"l.a.s.g.Q P $.@.@.$.#.#.#.#.#.H #.H #.H H G G H H H #.H #.H #.H #.#.H H H H #.#.#.H #.#.#.#.H H H H #.#.#.@.#.#.#.J P E j.s.a.x.",
"l.p.t.i E K S j @.c G G G S G G G G G G G G G G H G @.G @.G G G G G G G G G G G G G G G G G G G G S G G G S @.j G G F E i t.i.a.",
"p.u.r.9 N n j j j j j j j j j j j j j h j j j c G G G G c j j j j j j j h j j j j h j j j j j j j j j j j j j j j j n * 0 0.i.6.",
"4.2.7.8 & k g f f g g g g g g g g g g f s h h j j G G S j g g g f g s g g g g g g g g g g g g g g g g g g g g f f g l & ; 8.2.q.",
"2.1.: - $ k s a s a a a s s s s s s s s s s g j j G G S j g s s a a a a s s s s s s a a a a s s f s s s s s a a f a l o ; 7.7.2.",
"2.q.: ; & k g g s g g g s g s g g g s g s d d j G G H G j h g s s g g g s g s g d g g g f s s f g g g g s g z g f z k o ; 7.2.2.",
"4.q.8.8 2 B x x x S S S b S S S S b S b S S S G J $.$.#.D S S S S b S S S b S S x x x z h h h z x z x x x x x x x x l T 8 8.q.4.",
"4.u.r.i ^ L &.#.J J P H J J P J J &.P J J P &.&.=.=.=.&.U #.K P $.P J &.P P $.P $.P J G S S S G G J $.&.P J $.$.$.P L W 8.r.u.u.",
"l.p.s.j.O.>.=.;.;.;.:.=.:.:.;.:.=.=.=.=.;.-.:.:.:.:.:.:.:.:.;.;.:.=.;.=.;.=.;.;.-.;.;.&.H G G #.&.=.;.;.=.:.;.:.;.:.,.' z.s.p.l.",
"l.a.s.z.O.,.:.:.:.:.:.:.:.:.:.:.:.:.:.:.:.:.:.:.:.:.:.:.:.:.:.:.:.:.:.:.:.:.:.:.:.:.;.=.$.#.#.$.&.:.:.<.:.:.:.:.:.:.,.O.z.s.l.l.",
"l.l.d.j.O.<.:.*.*.;.*.:.;.;.:.;.:.;.:.:.;.:.;.;.:.;.;.:.;.;.:.;.:.;.:.:.*.:.:.:.;.;.;.=.%.#.#.$.&.=.;.=.:.;.;.*.;.;.>.O.z.s.l.l.",
"l.l.s.j./ -.&.%.%.%.%.&.%.&.&.&.*.%.&.&.&.&.&.%.&.&.&.&.&.&.&.&.&.&.&.&.&.&.&.*.&.&.%.$.$.#.#.$.$.&.&.&.*.&.&.*.%.&.Y / j.d.a.l.",
"l.a.s.j./ L #.#.#.H #.#.#.#.H H #.#.#.H #.#.#.#.#.#.#.#.#.#.#.#.H #.#.#.#.#.#.#.#.#.#.H #.G #.G #.$.@.#.#.#.@.@.@.$.P / j.s.a.l.",
"l.a.s.i E K G G H K F F H G G G G G G G G G G H G G G c G G G G c c G G G G G S S S G G G G G S c G D D D D D D c D K ~ i s.a.l.",
"l.a.k.t = n b D C A A C F b j j j j j S G G G G c j j j j j j j x j x x j j j x j j x j j j j j x x x x B V M B x x B T t s.a.l.",
"x.a.y.r = v b m 5 u u 5 M z h f f g h j S G G c j h g g g g g h g g g g g g g g h h g g h g f h f g z l * 2 2 $ v d v = t y.a.l.",
"x.a.y.r * k k % r g.g.r % k s a s s g j c G S c h g g a s s s s s f s s s f s s s f s s s s s s a f k o 1 > > 1 O   v * 0 y.a.l.",
"x.a.y.r % v O % r y.y.t = v f a a a f h c S G S j g s s s s s s s f s s s g s g s s s f s f s f f f k + ; : : - $ k v * r y.a.x.",
"x.a.y.r = v v = e y.i.e = v f f f f j j S G G c j h g g g g g g g g g g g g g g g g g g f h f f f g k & > 9.9.> * k v * t s.a.x.",
"x.a.y.t Z n n R t s.i.t R n j j j j j c G G G G c j j j j j j j j j j j j j j j j j j j j j j j j j x T r r.r.0 Z n n Z i y.a.x.",
"x.a.y.i E K K R i s.s.i E B c @.c G G G G G G G G G G G G G G G G G G G G G G G G G c G @.c @.c c G K ^ t y.y.t R F F ! i y.a.x.",
"a.p.y.i ~ P P / g.s.s.h.| I F J #.#.#.#.#.#.#.#.#.#.#.#.#.#.#.#.H H #.#.H G @.H H #.#.P H K F K K K A Q g.d.d.p ~ K K ~ i y.f.6.",
"6.i.t.u ! Y Y / j.s.f.s.t | / I Y &.&.*.&.&.&.&.&.&.&.&.&.&.%.*.&.&.&.$.#.#.#.#.#.&.&.U A } ~ } ~ E ( j.y.d.d.j.o.Y Y / i t.p.6.",
"2.2.e.w ' Y >.O.j.d.f.f.y.g.p } _ -.;.;.;.;.;.;.;.;.;.;.;.;.:.;.;.;.-.&.#.#.#.%.&.;.-.o.}  .p y g.j.h.y.f.f.d.j.O.>.>.` q e.q.2.",
"2.2.8.q ` >.,.O.z.s.a.a.f.s.h...o.<.;.:.:.:.:.:.:.;.:.:.:.:.:.:.:.:.;.*.#.#.#.%.*.;.-.o...h.s.d.s.s.s.f.p.f.d...O.,.>.` q 8.q.2.",
"2.q.< q ` >.>.{ ..h.y.d.d.y.h...+.<.:.:.:.:.:.:.:.;.:.:.:.:.:.:.:.:.;.&.%.#.#.%.*.;.<.o...h.s.d.s.s.s.s.d.y.k...{ ,.>.` q 8.7.1.",
"3.q.e.w ` -.-.] } | i y y i  .} [ ;.*.*.*.;.&.;.;.;.;.;.:.;.;.*.;.;.*.&.$.#.@.@.$.*.-.[ } i p y y i y i y i | o.] -.-.^ w r.2.3.",
"6.u.k.u ~ U &.K U A A } A } A A K %.%.%.%.%.%.%.%.$.%.$.$.%.%.$.%.%.$.@.@.#.@.@.%.%.$.U I A } Z ~ ~ E E ~ ! I I P $.Y ^ i t.u.u.",
"6.i.y.i } I #.H F K K K K K F K K #.#.#.#.#.#.#.#.#.#.#.#.#.#.#.#.#.#.#.#.#.G #.G #.H J K K K K K K K K K K K J H $.K E i t.p.l.",
"x.x.y.p } V F F P K K K K F K K K K K K K K K K K K K K K K K K K K K K K K K K K K K P K K K K K K K K K K K F K K I ( g.s.a.l.",
"x.x.x.k.p 7 } A A ~ ~ ~ A } A E ~ ~ ~ ~ } 5 ~ ~ 5 } ~ ~ R } ~ ~ ~ ~ } 5 ~ ~ ~ } E E ~ ~ } A E A ! ~ ! ~ ! ~ ~ ! ~ ~ Q i h.d.a.l.",
"x.f.f.s.k.y p p i i i i y p p p p i p p p p t t p u i p p p p p p p t t p p p p p p p i p i i i i i i i i i i i i i g.h.s.f.l.l.",
"f.x.f.f.y.y.y.s.y.s.s.y.s.s.s.s.y.y.y.s.s.s.k.y.k.x.x.k.y.y.y.s.s.s.k.k.s.s.x.k.y.y.s.s.s.s.s.y.s.s.s.s.s.s.s.s.s.s.s.d.f.a.a.a.",
"a.a.x.f.f.x.x.y.x.x.i.f.x.x.f.x.i.i.x.i.x.x.i.x.s.x.x.s.x.i.x.i.x.x.i.x.x.i.x.s.x.x.a.f.a.a.a.a.a.f.a.a.a.a.a.a.a.a.a.a.a.a.a.a.",
"a.a.a.x.f.x.x.x.x.x.x.x.x.6.x.x.x.x.x.x.x.x.x.x.x.x.x.x.i.x.x.x.x.x.x.x.x.x.x.x.6.x.x.x.x.x.a.x.x.x.x.x.l.l.l.l.l.l.l.l.a.a.a.a."
};
