/* XPM */
static char *grass_resized[] = {
/* columns rows colors chars-per-pixel */
"64 64 25 1 ",
"  c #366026",
". c #3A6426",
"X c #3E6825",
"o c #557F1F",
"O c #436D24",
"+ c #467023",
"@ c #4A7422",
"# c #4E7821",
"$ c #507726",
"% c #527C21",
"& c #587F24",
"* c #57811F",
"= c #5B851E",
"- c #5F881F",
"; c #60891F",
": c #578021",
"> c #5D8422",
", c #618724",
"< c #658C21",
"1 c #688F21",
"2 c #6D9222",
"3 c #719623",
"4 c #769A24",
"5 c #7A9C25",
"6 c #7FA026",
/* pixels */
"...... .. ... .. . .. .. .. . ... . ....  .       O$,43,$O.   ..",
"........................................O O  O.  .O$,43,$O. ....",
".....XXXXXXXXXXXXXXXXXXXXXXX.XXXXXXXXXX.  ..OOOOOO$$,441&$O..OOO",
"...OOO+O+++++++++++++++++++++++++++@+++XO OOO$$OOO$&,431&$OOOOOO",
"...O+##o###############################+O.OO$>>>$$%,2441>%##$###",
"..XO@%***********=****==*=*=****=***=*#@O.O$,121,,,,2442<>o*&&:%",
"..X+#*==========================**====*#OOO$,3542,,134442;==****",
"..X+#*=---=-===================**###*==#OOO$,4554223444432<<:%%#",
" .X+#=======-==================o#+@#*=*#OXX#,45553345555442,%#+O",
"..X+#=========================*#+O++#**#OXX%,35555445555542,$+O.",
"..X+#*==-==========------=====*%++O+#==#+O+o,34444344444542,$+X.",
" .X+#*============--;1;<;=====*%#@+##*=##+@o>22333333334322,%@+O",
"..X+#*=============;12211======*####==**o#oo=;<21111;11111<>:%%#",
"..X+#*============-<23321======*==**=====**==-----;=--;;---==:**",
"..X+#*============-125431-======================================",
" .X+#=============-225431-===========================*==========",
"..X+#*============;144431-======================================",
"..X+#*========--==;134431;======================================",
" .X+#*==-=-;-;;;==-;34431;--====----============================",
"..X+#*=====;;;;;-=;1344432;;-==-;;1;--==========================",
"..X+#*====-;122<;-;<34544311;-;;2221;-==========================",
"..X+#*====-;2432<-;<33565541;;;;2332<-==========================",
"..X+#*====;<3442<>=<245655433;;12553<-===============***========",
" .X+#*====;23442,%%=2456665431135553;==============*%%#**=======",
"..X+#*====-1354<:@$&14566655434455521;=============*#@@#**======",
" .X+#*====-1333<%++$,355655545445553<;============*#++X+#*======",
"..X+#*====-1333;$++$,2454455444455321============*##+XX+#*===*=*",
"..X+#*====-;131-&@@&>223333232342221;==========*##@+X..+#*=*####",
"..X+#*=====-<<<=&%o%>;<1<1;211;1111;;-=========*#++X..X+#*=*#+++",
"..X+#*=====---==*:**-;---,------=;-===========*#@OX...X+#**#@+XX",
" .X+#*==-======================================#+OXXXX+@#=*##XX.",
"..X+#*===========-=-=======*===================##++++++##==##+++",
"..X+#*==============*===========================*###*##**=***###",
"  X+#===========================================****==***===****",
"..X+#*=========***==============================================",
"..X+#*=========***##*===========================================",
" .X+#*=========*@+@#**==========================================",
"..X+#*========*#+OO+#*=============================-============",
"..X+#*=-======*#OXX+#============================;-;============",
" .X+*=========*@+XX+#=========================;;;;;;;;==========",
"..X+#*========*#+..+#*=========================;1222;===========",
"..X+#*========*#+XX+#*========================;<23321-==========",
"..X+#*==****===#+XX++**=======*==========;====;<35521-==========",
" .X+#*==#*#*==*#+X.X+@#**=**####*=====;;;<1;;=;125522;==========",
" .X+#***@@+#***#+X..X++#*=**#++#**====-;2221;-;125331-==========",
"..X+#**#@X++#**#+X...X+@#**#+O++#*====;<2332;-;135531-==========",
"..X+@***@+++#***@+X.XXX@#*=#+O++#*=====<33531;;12332;=====;;====",
" .X+#***#++#****#++++++#**=###+#***====135431;-;3542=*#=;;;;====",
"..X+#*=**#****=**######***=**###*=====-135421-=13332&$$$,221,>==",
"..X+#*==***=**=====****====*===*======-124431;-1353;$OO$,3331<==",
"..X+#*=========================-==-===-134431;;2443;$OO$,3431-=*",
" .X+#============-============-;<;1;-=-125443223453<$OO$,3431-==",
"..X+#*========================-;2222;;;135554334553,$OO$<3431;==",
"..X+#*========================-12332;-;125555445553,$OO$,3431;==",
" .X+#*=========================;23321--<24444444542,$++$,243;-==",
"..X+#*=========================-2222;-=-12323233322>$@@&,113;===",
"..X+#==========================;;11;;=--;;1111112;;=*%%*><;;;-==",
" .X+#============================--=-===-=;;----;;;==**=>=--;-==",
"..X+#*=======*==*=====**==========================--=---========",
"..X+#*======*##**=**###*===================*======-;;;1;;=======",
" .X+#*====**@++##==*#++#*====================*=====;1231;==*====",
"..X+#*====*#+++@#=*#+OO+#*========================;;33321-======",
"..X+#*====*#+XX+#*=#+XXO#*========================;134431-==*===",
" .X+#=====*#+..+#**#OXX+#*=======================-;135431;======"
};
