/* XPM */
static char *start_resized[] = {
/* columns rows colors chars-per-pixel */
"64 64 173 2 ",
"   c #41363E",
".  c #45393F",
"X  c #483A3E",
"o  c #5D3833",
"O  c #543A3A",
"+  c #5C3A39",
"@  c #7D3C2D",
"#  c #613A36",
"$  c #6D3C31",
"%  c #633D3B",
"&  c #733B32",
"*  c #723D38",
"=  c #5D423F",
"-  c #6D4134",
";  c #66433D",
":  c #6C433D",
">  c #784231",
",  c #71453A",
"<  c #79443E",
"1  c #7A4A3E",
"2  c #2F3647",
"3  c #2E3648",
"4  c #2F394F",
"5  c #343747",
"6  c #343847",
"7  c #3C3A45",
"8  c #303748",
"9  c #363A4B",
"0  c #393C4D",
"q  c #353D55",
"w  c #3C3E53",
"e  c #333E58",
"r  c #453A42",
"t  c #4A3C44",
"y  c #443C4A",
"u  c #4C3F4E",
"i  c #543D44",
"p  c #533F4B",
"a  c #423F51",
"s  c #3E4353",
"d  c #3E435B",
"f  c #3D4561",
"g  c #45444E",
"h  c #4E424C",
"j  c #504347",
"k  c #5D4344",
"l  c #53424C",
"z  c #5E4048",
"x  c #414356",
"c  c #4E4455",
"v  c #44455C",
"b  c #4B4559",
"n  c #46495D",
"m  c #4A4D5E",
"M  c #554653",
"N  c #594653",
"B  c #554857",
"V  c #594956",
"C  c #534B5B",
"Z  c #5A4D5A",
"A  c #49505F",
"S  c #5D515D",
"D  c #674441",
"F  c #6B4341",
"G  c #63454B",
"H  c #6C4649",
"J  c #674E4C",
"K  c #6B4B4D",
"L  c #7A4741",
"P  c #744A44",
"I  c #7A4C46",
"U  c #754C49",
"Y  c #7A4E48",
"T  c #7C534D",
"R  c #624D55",
"E  c #6A4E52",
"W  c #714F50",
"Q  c #6F5557",
"!  c #62535D",
"~  c #6B5458",
"^  c #63585F",
"/  c #705152",
"(  c #7B5751",
")  c #775957",
"_  c #7C5A55",
"`  c #725B5C",
"'  c #424762",
"]  c #474A61",
"[  c #494B61",
"{  c #464F68",
"}  c #484F68",
"|  c #534F61",
" . c #465061",
".. c #4C5066",
"X. c #475069",
"o. c #4D566C",
"O. c #4E596B",
"+. c #525465",
"@. c #5A5563",
"#. c #51576A",
"$. c #545A6C",
"%. c #5A5C6A",
"&. c #625761",
"*. c #645A63",
"=. c #A63F1F",
"-. c #AD3F1C",
";. c #863E27",
":. c #833C2B",
">. c #883E2A",
",. c #973E24",
"<. c #9A3E23",
"1. c #AF441F",
"2. c #B6441C",
"3. c #B8461D",
"4. c #86402E",
"5. c #8A422B",
"6. c #9F4325",
"7. c #94472F",
"8. c #9A4229",
"9. c #964A2D",
"0. c #9B4C2C",
"q. c #834232",
"w. c #8B4532",
"e. c #8E4B33",
"r. c #87493C",
"t. c #8C4B3B",
"y. c #914731",
"u. c #944C35",
"i. c #9A4E34",
"p. c #924D39",
"a. c #984F39",
"s. c #9E5137",
"d. c #94533E",
"f. c #9C5139",
"g. c #A14325",
"h. c #AA4421",
"j. c #AD4A26",
"k. c #A3472A",
"l. c #A04C2A",
"z. c #AD4D29",
"x. c #B14520",
"c. c #B24E26",
"v. c #BC4C20",
"b. c #AA512E",
"n. c #BC5326",
"m. c #B5522A",
"M. c #BC552A",
"N. c #BF582B",
"B. c #A04F31",
"V. c #A15136",
"C. c #AD5433",
"Z. c #A2563A",
"A. c #A3583C",
"S. c #C44C1D",
"D. c #D3551D",
"F. c #D6581E",
"G. c #D8581E",
"H. c #C45525",
"J. c #CE5622",
"K. c #C05629",
"L. c #C0582B",
"P. c #D15721",
"I. c #D15821",
"U. c #864E41",
"Y. c #884E41",
"T. c #8F5140",
"R. c #82554C",
"E. c #88574B",
"W. c #84584F",
"Q. c #945642",
"!. c #945844",
"~. c #995A44",
"^. c #825950",
/* pixels */
"f f f f ' f f f f f f f f f f f f f f f f f f f f ' f f ' f f f f f ' f f ' f f f f f f f f f f f f f f ' f f f f f f f f f f f ",
"n n n v ' b v ] b v b ] ' b b ' n n v n ] v b ] ' v ' v v ] ' b b ' ' b v ' b v b ] ' ] ] a ] ' a ] v ] v ' v ] b v ] ' v b b ' ",
"V N N V V V N V V V V N V N B N V V V V N V N N N N V V N N V V N V V N V V N V N V N V N N V N N N N V N V | p V p | V Z p p | ",
"U U U U U Y Y Y U U Y I Y Y Y U Y I I I U Y Y I Y I I I Y Y Y U U U Y Y Y Y U U Y Y Y Y Y Y Y Y Y Y Y Y U U U.I Y Y U.U Y U Y Y ",
"a.a.a.a.V.V.a.V.V.a.V.V.V.V.V.a.s.V.s.s.V.V.V.V.V.V.V.V.V.V.V.V.V.a.V.V.V.V.V.V.V.V.V.a.V.V.V.V.V.V.V.V.a.V.V.V.V.V.f.f.f.Q.V.a.",
"M.K.M.M.M.M.M.M.M.M.M.M.M.M.M.K.M.M.M.M.M.M.M.M.M.M.M.M.M.M.M.M.M.M.M.M.M.M.M.M.M.M.M.M.M.M.M.M.M.M.M.M.M.M.M.M.M.M.K.K.K.K.K.K.",
"I.I.P.J.H.M.M.M.M.M.M.M.M.M.M.M.M.M.M.M.M.M.M.M.M.M.M.M.M.M.M.M.M.M.K.M.M.M.M.M.M.M.M.L.M.M.M.M.M.M.M.M.M.K.K.K.M.M.K.H.H.J.J.J.",
"I.I.P.H.m.C.V.V.a.V.V.V.a.V.V.a.s.s.s.s.V.V.V.V.V.B.V.V.V.V.V.V.V.V.V.B.V.V.V.B.V.V.V.V.V.a.V.V.V.V.a.V.V.Q.V.a.a.V.C.m.H.J.F.D.",
"G.I.H.m.f.r.I U U Y U U U I I U U U I I I I I I I I I I U.I I I I I I U.I I I I I I I I U Y U U U U I I U U U U U L U.a.m.H.F.G.",
"G.D.K.C.Y.K V M V V V V V V V N V V V V V M B V V V V N B V V N N V N B V N N V V V N V V N N V V N V V V V V V | p K U.V.H.P.G.",
"G.I.N.f.Y Z m m b B V V V V V V V V B C m b [ ] [ b ] ] ' ] ' n ] ] ] ] m [ ] [ [ [ m b c B B B N V V V V V B b [ [ R Y s.K.P.F.",
"G.I.L.f.T S ..Z R W U U Y U U U Y U W E Z +.[ X.} } } ] ' ' ' ' ] } } } X.X.X.X.{ } [ C N G z H H U U Y U U K R | | S T Z.L.P.G.",
"G.I.N.f.( ^ @.^ T Q.f.V.V.V.V.V.V.f.d.E.~ @.O.O.o.o.o.X.] ' ] { } } $.O.O.O.O.O.O.o.+.R H < :.t.u.a.V.V.V.f.Q.( ! @.&.( A.L.J.F.",
"G.I.N.A._ *.*.) Q.C.M.n.K.M.M.K.n.n.C.d._ %.$.$.$.$.$.o.[ n ] ] ..$.$.$.$.$.$.$.$.$.@.E L >.<.g.c.m.K.K.K.m.C.!.) *.*.^.A.L.J.F.",
"D.J.M.d.( S &.( d.M.H.J.H.n.m.v.n.n.C.d.( S #.O.O.O.#.[ [ n n m ..+.#.#.#.#.#.$.$.$.@.E L >.,.6.x.c.v.K.S.J.m.~.( &.&.^.f.m.H.D.",
"S.3.z.d.U Z Z U u.j.v.3.j.k.0.0.l.0.e.1 J C A  .A m m n x x w v n [ [ A  .A  ...X.#.@.R D & :.;.7.7.l.x.v.v.c.p.U V V I T.z.v.S.",
"2.1.6.q.D j h D w.k.h.6.5.> - - - - ; = j g s s a a w w 0 0 0 0 s s s x s s v n ] [ [ B i o o o # - > 5.6.1.6.w.D h l D q.g.x.3.",
"1.1.,.@ + r r = @ ,.,.>.$ O X . . . r r 7 7 6 9 9 9 w 5 9 5 5 5 6 7 6 9 9 5 0 w a ] ] a y r   r   X O $ >.,.,.@ + r r + > ,.=.1.",
"=.=.,.@ +   r + @ <.<.:.# r 5 8 8 8 8 5 6 6 6 6 5 5 8 8 5 8 5 5 6 6 5 5 5 5 0 w a ' v a 9 9 5 2 2 9 . # :.,.,.@ + . r + @ ,.=.-.",
"2.1.6.@ % t t ; >.g.g.>.% y 9 4 9 q 8 9 9 9 9 9 9 9 9 9 9 0 9 9 9 9 9 5 9 9 q w a ' d a w q q 4 4 9 r % 5.g.g.>.; t r % :.6.1.2.",
"S.v.j.e.D u p : y.x.j.7.F u w e q q w w w q w w a w w a w w w a q w w w w w a a a v v a a w e q q w h F y.c.j.7.: p u D w.j.v.S.",
"D.J.m.u.P M M P i.m.m.i.L M ' w d v v v v v v v a v f v a v d v x v x v v a f a ' ' ' ' v v f v d v M P i.m.m.i.P M M P p.m.J.D.",
"D.J.M.f.U V B U Q.C.C.d.U Z [ ] ] ' [ ] v n v n ] ] ] ] ] ] [ [ [ [ m [ ] ] ] [ ] [ ] ] ' [ ] ] f [ Z U f.C.C.d.U C Z Y f.N.J.D.",
"G.P.N.Z.T S @.~ E.~.~.E.Q @.} } } } [ [ ] ] n [ ] ..............[ ....[ ..} | ....[ ............X...S Q E.~.~.W.~ @.! T f.K.I.G.",
"G.P.N.A.W.&.@.*.` _ _ ` *.@.$.#.$.#.#.[ [ [ ] [ | #.#.#.#.#.#.$.$.#.$.#.#.#.#.#.$.#.#.#.#.#.$.#.#.$.$.*.` ^._ ` &.@.&.^.A.L.P.G.",
"G.P.N.A.^.*.%.%.%.*.*.*.%.%.$.$.%.$.$.#.[ ] [ [ ..#.$.$.$.%.$.$.$.$.$.$.$.$.$.$.$.$.$.$.$.$.$.$.$.$.%.%.%.*.*.%.%.$.*.^.A.L.P.G.",
"D.I.K.A.^.*.$.$.$.$.$.$.$.$.$.$.$.$.#.} [ [ ] [ ..#.$.$.$.$.$.$.$.$.$.$.$.%.$.$.$.$.$.$.%.$.$.$.$.$.$.$.%.$.$.$.$.$.*.^.A.K.P.D.",
"G.I.K.A.W.&.$.O.o.o.O.$.#.#.#.$.$.#.#.| [ ] ] [ ..#.#.#.#.#.#.#.$.#.$.#.#.#.#.#.#.#.#.#.#.#.#.#.#.#.$.O.$.O.o.o.o.O.*.W.A.L.P.G.",
"G.I.L.Z.R.! [ X.X.o.[ ......[ +.} | [ [ [ ] ] ] [ ..} ......} ..} | ..} ..| } ..} ............} ......} } } } } X.[ Z R.Z.K.I.I.",
"I.P.M.f.Y N [ ' ' ' [ ' [ ] ' n ] ] ] ' ' b v ] ] [ ] ] [ [ ] ] ] ] [ ] ] ] [ ] [ [ ] [ ] ] [ ] ] ] [ [ ] ] ' ] ] [ Z Y V.K.P.G.",
"D.J.m.i.P M v d f v v v v v v v v a ' v v v v ' a ] ] ' a f v v a ' a ' ' a a ' f a a f a v v v v v a v v a v d d n M L i.m.J.D.",
"S.S.j.w.F p w q e w w w w w w w w w w w w w a w ' a v a a a w w w a w w w w a w w w a w w a w w w w w w w w w w q w p F w.j.v.S.",
"2.1.6.4.# g 6 3 9 9 9 6 9 9 9 7 9 9 9 7 9 9 9 q w v v w w 0 9 5 9 9 9 9 9 9 9 9 7 6 6 9 9 9 9 9 9 9 9 9 6 9 9 9 3 9 t % 4.g.1.2.",
"=.1.,.@ #   6 2 5 6 6 2 6 6 6 8 6 6 6 8 8 7 9 9 a v v s 0 9 5 8 5 5 6 6 5 5 5 5 2 2 6 6 6 6 6 6 6 6 5 5 5 5 5 8 8 6 . + @ ,.=.1.",
"-.=.8.@ # r 6 s 6 6 s 5 9 9 9 9 9 9 9 9 6 7 s s v ' m v a 0 9 9 9 9 9 6 9 9 9 9 6 s 9 6 6 6 6 9 9 9 9 9 s 8 9 9 9 s   = @ ,.=.-.",
"2.1.k.w.D j s s s s s s s s s s s s s s s s g n [ [  .n n x s s w x s s s s g x s s s s s 7 9 0 s s s s s s s s s s j ; 5.6.1.2.",
"S.3.z.a.U Z A A A A A A [ m n A A A A A A A A A ..#.+.....| [ m A A A A A A A A [ m m n v a a a g A A A A A  . .A A Z U u.z.v.S.",
"D.S.M.f.R.*.#.O.O.O.O.O.$.$.#.$.$.+.+.O.#.#.#.$.$.$.$.$.$.$.$.#.$.+.#.$.#.$.$.+.#.$.+...' ' ] [  .+.$.#.$.#.#.O.O.$.^ R.f.M.H.D.",
"G.I.N.A.^.*.$.O.$.$.$.$.$.$.$.$.$.$.$.$.$.$.$.$.$.$.$.$.$.$.$.$.$.$.$.$.$.$.$.$.$.$.$...[ ] [ [ ..$.$.$.$.$.$.$.O.$.*.W.A.N.I.F.",
"G.F.L.A.^.*.O.O.O.O.+.O.#.#.$.$.$.#.$.$.$.#.$.#.$.#.#.$.#.#.#.#.#.$.#.#.$.#.#.$.#.#.#.#.[ ] [ [ ..#.#.$.#.O.O.O.O.#.^ W.A.N.D.G.",
"G.I.L.Z.R.! ..X.X.X.X.X.....| ......[ +.[ #.[ } ......[ ................| } ..| } ....[ ] ] ] [ [ } ..} } } } X.X...! R.Z.K.D.G.",
"G.I.M.f.Y V n ] ] ] n [ ] m n [ n m [ ' ] [ [ [ ] ] ] ] ] ] ] ] m n ] m ] n ] ] [ ] ] [ ] ' v v [ ] [ [ ] ] [ ] ' [ V Y f.M.I.G.",
"D.H.n.s.P M v v b B B B b v v v v v x n v v n v f v ' a v d v v v v v v v v v v a v a ' ' v a f v a ] u c c B u v v M U s.M.I.G.",
"S.v.j.w.: l x l G H H J l x 0 w q s w x a v v v a a w a a a w w q a w q w w w w w w w a w w a w w a a u p z p p g a l < s.M.I.G.",
"3.h.6.@ % t y k P t.t.1 z y 9 8 9 9 9 w v v v w w q 5 9 9 9 9 9 7 9 9 0 9 9 9 9 w 9 9 0 9 0 9 9 q 9 y i % * * % t y j : 9.n.J.G.",
"-.=.,.@ + r r ; e.z.b.y.: r 5 3 3 5 9 w a ' ' a a 5 5 5 5 5 5 5 5 5 5 5 5 5 5 5 8 9 5 5 5 5 9 8 8 9 r O & ;.:.& O   t - 9.n.I.G.",
"-.=.,.@ + . X : 9.M.n.i., t 9 3 3 8 9 w w v ' w q 5 5 5 5 5 9 8 5 6 5 5 5 5 5 5 5 5 5 5 5 8 8 8 3 5 r o @ ,.,.@ + r X : 9.n.J.I.",
"3.x.g.q.+ t j , 0.H.n.l., t 9 4 4 9 w e a v ' a a a 9 9 9 9 9 9 9 9 0 9 0 9 9 0 9 9 9 0 9 9 9 4 4 9 y % 5.g.g.5.% r j : i.M.I.G.",
"S.v.j.w.D p l L i.M.n.l.P h s q e e q f a ' v v a a w w a w w w w a w a w w w w w w w w w w q e e w u H y.c.j.>.H p p P i.M.P.G.",
"D.J.M.p.H M N P s.M.M.V.I N v d ' a ' a v ] ] a f v a f a v f v ' a f a v v v v ' a ' u ' ' a f d a p I i.m.m.i.P N M I a.M.P.G.",
"D.H.m.a.U V Z U s.M.K.C.U.K M B B B B B [ [ [ ] ] ] [ [ [ ] ] ] ] ] [ ] ] ] [ [ ] ] [ [ B B N B B N E U.C.K.K.V.Y V V U p.m.J.D.",
"S.S.j.p.U ! ! ( Z.K.H.M.f.Y.I Y U.Y W E R | | } } ....} ......o...} ......} } X.} ....R E U U U.Y Y Y.V.M.H.L.Z.R.S S W p.j.v.S.",
"2.x.k.t.W &.&.W.A.K.J.J.M.C.B.V.B.V.Q.Y.Q %.#.o.#.#.#.#.#.#.#.#.#.#.#.#.$.$.#.o.#.#.@.Q Y.Q.V.B.V.V.C.M.H.P.L.A.^.&.S W t.k.x.x.",
"-.=.<.r.E &.*.^.A.N.J.J.H.L.M.L.K.M.C.~._ *.$.o.$.$.$.$.$.$.$.%.$.$.$.$.$.$.$.$.$.$.*._ ~.C.L.K.K.L.K.H.J.J.L.A.^.*.&.W r.,.=.-.",
"-.=.8.r.W &.*.) !.C.L.K.K.L.M.H.K.M.C.Q._ &.#.$.$.$.$.$.$.$.$.$.$.$.$.$.$.$.$.o.$.$.*._ Q.C.M.K.K.M.M.K.K.K.C.!.) *.&.W Y.,.=.-.",
"2.1.k.t.W @.@.! ( T.a.a.B.a.V.i.V.V.T.R.~ @.o.o.o.o.o.o.o.o.o.o.o.#.#.#.o.o.o.o.o.o.@.~ R.T.V.V.V.V.V.a.a.a.T.T &.@.@.W t.j.x.-.",
"S.v.z.p.W Z | | Z K U P U U U U I U K R @.[ } { } } { } } } } } } } } } } } } [ } } [ @.E U U U I U U U U U E R | [ | U p.z.v.S.",
"D.J.m.V.Y V [ ] b V V V V V V V V V V B B [ ] ] ] ] ] ] ] ] ] ] ] ] ] ] ] [ ] ] ] ] [ b B B V V N V V V N V V b [ [ V U V.m.J.P.",
"D.P.K.V.U.K V N V V V V V V V N N V V N N N V V N N N V N N N N N N B N V N N V N V V N N N V N V V N V V V N B N N K U.V.K.J.P.",
"I.P.K.m.a.U.Y U U U U U I U U U U U I I I I I I I U I I I I I I Y I Y I I I I I I I I I U U U U U U U U U U U I I I U.a.m.J.I.I.",
"I.P.P.K.z.V.V.a.a.a.a.a.a.a.a.V.a.a.V.a.a.V.B.a.V.V.a.B.V.a.B.V.a.V.V.a.a.V.a.B.B.a.V.a.V.a.a.a.a.a.a.V.a.a.V.a.a.V.V.m.L.J.P.P.",
"P.P.J.J.J.K.M.M.K.K.K.K.L.M.M.M.M.K.M.M.K.M.K.M.M.M.M.L.M.M.K.M.K.M.K.K.L.M.M.L.M.M.K.M.M.K.L.K.L.M.M.M.M.M.M.M.K.L.K.H.J.J.P.P.",
"P.P.P.P.P.P.P.P.P.P.P.P.P.P.P.P.P.P.P.P.P.P.P.P.P.P.P.P.J.P.J.P.P.J.P.D.P.P.P.P.P.J.P.P.P.P.P.P.P.P.P.P.P.P.P.P.P.P.P.P.P.J.P.P.",
"P.P.P.P.I.G.G.G.G.I.G.G.I.G.G.I.G.G.I.G.G.I.G.G.G.G.G.I.G.G.G.G.G.G.G.G.I.G.G.I.G.G.G.G.G.I.G.G.G.G.I.I.G.G.G.G.G.I.I.P.P.P.P.P."
};
