/* XPM */
static char *wall_resized[] = {
/* columns rows colors chars-per-pixel */
"64 64 134 2 ",
"   c #2A2E3C",
".  c #2D313F",
"X  c #3F6925",
"o  c #3F672C",
"O  c #3F6828",
"+  c #436F1D",
"@  c #4B7916",
"#  c #43701A",
"$  c #4D791B",
"%  c #456F22",
"&  c #466E2A",
"*  c #4F7824",
"=  c #597F2C",
"-  c #416732",
";  c #426835",
":  c #486D36",
">  c #527634",
",  c #2E3240",
"<  c #313543",
"1  c #373C4B",
"2  c #3A3F4D",
"3  c #3E4352",
"4  c #404555",
"5  c #434857",
"6  c #454B5C",
"7  c #494F5E",
"8  c #4C525F",
"9  c #4E5A5E",
"0  c #4A6B42",
"q  c #4E6C4B",
"w  c #5E7E42",
"e  c #567548",
"r  c #4F6C50",
"t  c #516757",
"y  c #536E54",
"u  c #5C745C",
"i  c #647C5B",
"p  c #494F60",
"a  c #4D5363",
"s  c #505665",
"d  c #535867",
"f  c #555C6D",
"g  c #585E6D",
"h  c #575E70",
"j  c #585F70",
"k  c #556461",
"l  c #5B6E65",
"z  c #59636D",
"x  c #5D7365",
"c  c #5E736A",
"v  c #5C6374",
"b  c #5E6678",
"n  c #61746D",
"m  c #616675",
"M  c #626877",
"N  c #616779",
"B  c #656B7B",
"V  c #696E7C",
"C  c #657675",
"Z  c #6D7E73",
"A  c #667479",
"S  c #6F737D",
"D  c #687878",
"F  c #717E7F",
"G  c #55811A",
"H  c #578020",
"J  c #5E842C",
"K  c #7A9A2F",
"L  c #62833C",
"P  c #7A9835",
"I  c #658345",
"U  c #67834C",
"Y  c #799442",
"T  c #799249",
"R  c #678151",
"E  c #688353",
"W  c #6A805F",
"Q  c #788F55",
"!  c #799052",
"~  c #6C8164",
"^  c #6D806A",
"/  c #778A65",
"(  c #788B62",
")  c #70816F",
"_  c #77886C",
"`  c #748376",
"'  c #788676",
"]  c #718078",
"[  c #676F82",
"{  c #686F82",
"}  c #6C7386",
"|  c #6D7A82",
" . c #6F7689",
".. c #717680",
"X. c #727B84",
"o. c #7A7D86",
"O. c #70778A",
"+. c #727B8C",
"@. c #797D89",
"#. c #757D90",
"$. c #787F95",
"%. c #768183",
"&. c #77818A",
"*. c #7D828C",
"=. c #778093",
"-. c #788094",
";. c #7C8399",
":. c #80858F",
">. c #828691",
",. c #858B95",
"<. c #888E94",
"1. c #8B929C",
"2. c #92979D",
"3. c #959BA1",
"4. c #999EA2",
"5. c #9EA4A6",
"6. c #9FA6A8",
"7. c #A0A6A7",
"8. c #A0A6A8",
"9. c #A4AAAA",
"0. c #A8ADAD",
"q. c #A7A9B0",
"w. c #A8AAB0",
"e. c #ACB0B1",
"r. c #B1B4B5",
"t. c #B4B8B6",
"y. c #B4B6B8",
"u. c #B6BAB9",
"i. c #BBBCBC",
"p. c #BDBEC0",
"a. c #BFC0C0",
"s. c #C3C4C5",
"d. c #C7C8C8",
"f. c #CBCCCC",
/* pixels */
"f h N X.<.2.9.0.0.0.9.9.0.9.9.9.9.9.9.9.9.9.9.9.9.9.9.9.9.9.9.9.9.9.9.9.9.9.9.9.9.9.9.9.9.9.9.9.9.9.9.9.9.9.9.9.9.9.9.9.9.9.9.9.",
"d h N X.<.5.9.0.9.9.9.9.9.9.9.9.9.9.9.9.9.9.9.9.9.9.9.9.9.9.9.9.9.9.9.9.9.9.9.9.9.9.9.9.9.9.9.9.9.9.9.9.9.9.9.9.9.9.9.9.9.9.9.9.",
"d g N X.<.2.9.9.9.6.6.5.6.9.9.9.9.9.9.9.9.9.9.9.9.9.9.9.9.9.9.9.9.9.9.9.9.9.9.9.9.9.9.9.9.9.9.9.9.9.9.9.9.9.9.7.9.7.5.5.9.9.9.9.",
"f g N X.<.5.7.5.5.2.2.5.5.6.9.9.9.9.9.9.9.9.9.9.9.9.9.9.9.9.9.9.9.9.9.9.9.9.9.9.9.9.9.9.9.9.9.9.9.9.9.9.9.9.7.5.3.3.3.5.5.9.9.9.",
"f h N X.<.4.7.5.3.2.1.2.5.6.9.9.9.9.9.9.9.9.9.9.9.9.9.9.9.9.9.9.9.9.9.9.9.9.9.9.9.9.9.9.9.9.9.9.9.9.9.9.9.9.7.5.3.2.1.2.3.7.9.9.",
"f f N X.<.4.5.3.1.;.;.<.2.5.9.9.9.9.9.9.9.9.9.9.9.9.9.9.9.9.9.9.9.9.9.9.9.9.9.9.9.9.9.9.9.9.9.7.9.9.9.9.9.9.5.3.1.;.*.1.3.7.9.9.",
"d h b X.<.4.5.3.1.;.;.1.3.6.9.0.9.9.9.9.9.9.9.9.9.9.9.9.9.9.9.9.9.9.9.9.9.9.9.9.9.9.9.9.9.9.9.9.9.9.9.9.9.9.7.3.1.;.;.1.3.7.9.0.",
"f h N X.<.4.7.5.3.1.1.2.4.6.9.9.9.9.9.9.9.9.9.9.9.9.9.9.9.9.9.9.9.9.9.9.9.9.9.9.9.9.9.9.9.9.9.9.9.9.9.9.9.9.9.3.2.1.1.3.3.7.9.9.",
"f v b X.*.5.9.7.5.3.3.3.5.7.9.9.9.9.9.9.9.9.9.9.9.9.9.9.9.9.9.9.9.9.9.9.9.9.9.9.9.9.9.9.9.9.9.9.9.9.9.9.9.9.7.7.3.3.3.4.7.9.9.9.",
"f z b | <.3.9.9.7.5.7.7.9.9.9.9.9.9.9.9.9.9.9.9.9.9.9.9.9.9.9.9.9.9.9.9.9.9.9.9.9.9.9.9.9.9.9.9.9.9.9.9.9.9.9.9.7.7.7.7.7.9.9.9.",
"s z N %.<.5.9.9.9.9.9.9.9.9.9.9.9.9.9.9.9.9.9.9.9.9.9.9.9.9.9.9.9.9.9.9.9.9.9.9.9.9.9.9.9.9.9.9.9.9.9.9.9.9.9.9.9.9.9.9.9.9.9.9.",
"f h n ` *.5.9.0.0.9.9.0.9.9.9.9.9.9.9.9.9.9.9.9.9.9.9.9.9.9.9.9.9.9.9.9.9.9.9.9.9.9.9.9.9.9.9.9.9.9.9.9.9.9.9.9.9.9.9.9.9.9.9.9.",
"s h b  .*.7.9.0.0.0.9.9.9.9.9.9.9.9.9.9.9.9.9.9.9.9.9.9.9.9.9.9.9.9.9.9.9.9.9.9.9.9.9.9.9.9.9.9.9.9.9.9.9.9.9.9.9.9.9.9.9.9.9.9.",
"f h N | <.4.9.0.9.9.9.9.9.9.9.9.9.9.7.9.9.9.9.9.9.9.9.9.9.9.9.9.9.9.9.9.9.9.9.9.9.9.9.9.9.9.9.9.9.9.9.9.9.9.9.9.9.9.9.9.9.9.9.9.",
"d f N X.<.7.9.0.0.9.9.9.9.9.9.9.9.9.9.9.9.9.9.9.9.9.9.9.9.9.9.9.9.9.9.9.9.9.9.9.9.9.9.9.9.9.9.9.9.9.9.9.9.9.9.9.9.9.9.9.9.9.9.9.",
"f v N X.*.4.9.0.9.9.9.9.9.9.9.9.9.9.9.9.9.9.9.9.9.9.9.9.9.9.9.9.9.9.9.9.9.9.9.9.9.9.9.9.9.9.9.9.9.9.9.9.9.9.9.9.9.9.9.9.9.9.9.9.",
"f f N X.,.5.9.0.9.9.9.9.9.9.9.9.9.9.9.9.9.9.9.9.9.9.9.9.9.9.9.9.9.9.9.9.9.9.9.9.9.9.9.9.9.9.9.9.9.9.9.9.9.9.9.9.9.9.9.9.9.9.9.9.",
"f h N X.<.2.9.9.0.9.9.9.9.9.9.9.9.9.9.9.9.9.9.9.9.9.9.9.9.9.9.9.9.9.9.9.9.9.9.9.9.9.9.9.9.9.9.7.9.9.9.9.9.9.9.9.9.9.9.9.9.9.9.9.",
"d h b X.<.4.9.0.9.9.9.9.9.9.9.9.9.9.9.9.9.9.9.9.9.9.9.9.9.9.9.9.9.9.9.9.9.9.9.9.9.9.9.9.9.9.9.9.9.9.9.9.9.9.9.9.9.9.9.9.9.9.9.9.",
"f h b X.<.4.9.9.0.0.9.9.9.9.9.9.9.9.9.9.9.9.9.9.9.9.9.9.9.9.9.9.9.9.9.9.9.9.9.9.9.9.9.9.9.9.9.9.9.9.9.9.9.9.9.9.9.9.9.9.9.9.9.9.",
"d v M X.<.4.9.9.9.9.0.9.9.9.9.9.9.9.9.9.9.9.9.9.9.9.9.9.9.9.9.9.9.9.9.9.9.9.9.9.9.9.9.9.9.9.9.9.9.9.9.9.9.9.9.9.9.9.9.9.9.9.9.9.",
"f f M X.<.4.9.9.9.9.9.9.9.9.9.9.9.9.9.9.9.9.9.9.9.9.9.9.9.9.7.9.9.9.9.9.9.9.9.9.9.9.9.9.9.9.9.9.9.9.9.9.9.9.9.9.9.9.9.9.9.9.9.9.",
"f f N X.<.4.9.9.6.5.5.6.9.9.9.9.9.9.9.9.9.9.9.9.9.9.9.9.9.9.9.9.9.9.9.9.9.9.9.9.9.9.9.9.9.9.9.9.9.9.9.9.9.9.9.7.9.7.7.7.9.9.9.9.",
"f h M ] <.4.5.9.5.3.3.4.5.6.9.9.9.9.9.9.9.9.9.9.9.9.9.9.9.9.9.9.9.9.9.9.9.9.9.9.9.9.9.9.9.9.9.9.9.9.9.9.9.9.7.5.3.3.3.3.7.9.9.9.",
"d h b | <.4.5.5.1.1.1.1.4.6.9.9.9.9.9.9.9.9.9.9.9.9.9.9.9.9.9.9.9.9.9.9.9.9.9.9.9.9.9.9.9.9.9.9.9.9.9.9.9.9.7.3.2.;.2.3.3.7.9.9.",
"f h N X.<.5.5.5.1.,.;.1.3.5.9.9.9.9.9.9.9.9.9.9.9.9.9.9.9.9.9.9.9.9.9.9.9.9.9.9.9.9.9.9.9.9.9.9.9.9.9.9.9.9.7.3.3.;.*.2.3.7.9.0.",
"f j N X.<.2.5.3.1.;.,.1.3.5.9.9.9.9.9.9.9.9.9.9.9.9.9.9.9.9.9.9.9.9.9.9.9.9.9.9.9.9.9.9.9.9.9.9.9.9.9.9.9.9.5.3.1.;.<.;.3.7.9.9.",
"f j M X.<.5.5.4.2.1.1.1.4.6.9.9.9.9.9.9.9.9.9.9.7.9.9.9.9.9.9.9.7.9.9.9.9.9.9.7.7.9.9.9.9.9.9.9.9.9.9.9.9.9.7.3.2.;.2.3.3.7.9.9.",
"f j N X.<.4.7.5.5.2.2.5.5.5.6.9.9.9.9.9.9.9.9.9.9.9.9.9.9.9.9.9.9.7.9.9.9.7.9.9.9.9.7.9.9.9.9.7.9.9.9.9.9.9.7.5.3.3.3.3.5.7.7.9.",
"f j N X.<.4.9.9.6.5.5.6.6.6.9.9.9.9.9.9.9.9.9.9.9.9.9.9.9.9.9.9.9.9.9.9.9.9.9.9.9.9.9.9.9.9.9.9.9.9.9.9.9.9.9.9.7.7.7.7.7.9.9.9.",
"a d v X.<.7.0.r.e.0.0.0.0.9.0.9.0.9.0.9.9.9.0.9.9.9.0.9.9.0.0.9.0.0.0.0.0.0.9.0.9.e.0.0.9.0.9.e.e.9.9.e.9.0.0.0.0.0.e.0.e.e.e.e.",
"5 p g ..1.0.u.i.u.t.t.t.t.t.t.t.t.t.t.r.t.t.t.r.t.r.t.r.t.r.r.t.e.t.t.e.t.e.t.t.t.e.t.t.e.t.t.t.e.t.e.t.t.e.t.t.e.t.t.u.u.u.u.u.",
"2 3 8 S 2.y.s.d.s.i.i.i.i.i.i.i.i.i.y.i.i.i.i.i.i.i.i.i.i.i.i.i.u.u.i.u.i.i.i.i.i.i.i.i.i.i.i.i.y.i.i.i.y.p.p.i.i.i.p.p.s.s.d.d.",
". 1 7 S 2.i.f.f.d.p.i.i.i.i.i.i.i.i.p.i.i.i.i.p.i.i.i.i.i.i.i.i.u.a.i.i.i.i.i.i.i.i.i.i.i.i.i.i.i.i.i.i.i.p.p.y.i.i.p.s.d.f.f.f.",
"  < 5 m <.r.a.s.i.y.r.r.r.r.r.r.r.r.r.r.r.r.r.r.r.r.r.r.r.r.r.r.t.t.t.e.r.r.t.t.r.r.r.t.r.r.r.r.r.r.r.r.r.r.r.r.r.r.y.y.p.s.d.s.",
"  < 3 g o.2.q.q.q.5.4.4.4.4.4.4.4.4.4.4.4.4.4.4.4.4.4.4.4.4.4.3.4.4.3.4.4.4.4.3.4.4.4.2.4.4.4.4.4.4.4.4.4.4.4.4.4.4.4.q.q.q.w.w.",
". < 2 7 m o.>.,.>.>.:.:.>.@.*.:.o.*.*.*.@.*.*.*.@.*.*.*.&.-.*.*.*.:.*.:.%.:.o.:.*.*.*.*.*.*.*.*.*.*.*.*.*.*.*.*.*.:.:.>.:.>.>.>.",
". < 2 5 d N { { B B B M B B B B B B B B [ [ B B B B B B b [ A B B B M M A B B B B B B B B B B M B B B B B B B B B B B B V V V ..",
". < 1 3 a f v h f d d g j j v v v v v v j j N j j h v v v v v v v v z v v v v v v v v v v v v v v v v v v v v h f d f f g v v v ",
". < 1 5 s h h f a p p a h j N N N N m m b N N N N m m N b b b b v N b b b b b b b b b b b b b b m m b b m b v d s 6 6 a f v v N ",
"< < 2 5 g m m g p 4 4 p f N { { [ [ [ [ [ { { { [ [ [ [ [ [ [ [ { { { { { { { [ [ [ [ [ [ [ [ [ { { { { } { N g 7 4 5 7 f [ [ [ ",
". < 2 7 g S { m p 3 4 7 j { O.+.O.O.O.O.O.O.O.O.O.O.O.O.O.O.O.O.O.+.O.O.+.+.+.O.+. . .+.+.+. .+.O.O.+.+.O.O.{ g 7 4 4 p h [ O.O.",
". < 2 7 v } } m s 5 5 s N O.#.$.$.#.#.#.#.#.#.#.+.#.#.#.=.=.+.O.#.#.#.#.+.#.#.+.#.#.#.#.#.#.+.#.#.#.#.#.$.#.} b a 5 5 a N } #.$.",
". < 2 7 m } O.{ h s s f N O.#.#.$.$.#.$.#.#.$.#.#.=.=.+.=.=.=.=.#.#.#.#.#.=.=.#.#.#.#.#.#.=.=.=.#.$.#.#.$.$.O.[ g s s g [ O.#.$.",
", < 2 7 v } O. .B N N N } O.#.#.#.#.#.#.#.#.#.#.=.#.#.=.#.#.#.=.#.#.#.#.=.#.#.=.#.#.#.=.#.#.=.+.#.#.#.#.#.#.O.} B b m B [ O.$.$.",
", < 2 7 v } #.#.O.O.O.O.O.#.#.#.#.#.#.#.#.#.#.#.#.#.#.#.#.=.+.#.#.#.#.#.#.#.#.#.#.#.#.#.#.#.#.#.#.#.#.#.#.#.#.O. . .} } O.#.#.#.",
", , 2 7 g } #.#.#.#.#.#.@.#.#.#.#.#.#.#.#.#.#.#.#.#.=.+.#.+.#.#.#.#.#.#.#.#.#.#.#.#.#.#.#.#.#.#.#.#.#.#.#.#.#.#.#.#.#.#.#.#.#.#.",
", < 2 7 v } #.$.$.$.#.#.#.#.#.#.#.#.#.#.#.#.#.#.+.#.#.#.#.=.#.#.#.#.#.+.#.+.#.#.#.#.#.+.#.+.#.#.#.#.#.#.#.#.#.#.#.#.$.#.#.#.#.#.",
", < 2 7 v { #.$.$.#.#.#.#.#.#.#.#.#.#.#.+.#.#.#.#.#.+.#.+.=.#.#.#.#.+.#.#.#.+.#.+.#.#.#.+.#.#.#.#.#.#.#.#.#.#.#.#.#.#.#.#.#.#.#.",
". , 2 7 v } #.$.$.#.#.#.#.#.#.#.#.+.#.#.#.#.#.#.#.#.#.#.#.#.#.+.#.#.#.#.#.#.#.#.#.#.#.#.#.#.#.#.#.#.#.#.#.#.#.#.#.#.#.#.#.#.#.#.",
", < 2 7 v } @.$.#.@.#.#.#.#.#.#.#.#.#.#.#.#.+.#.#.#.#.#.#.#.#.#.#.#.#.#.#.#.#.#.#.#.+.#.#.#.+.#.#.#.#.#.#.#.#.#.#.#.#.#.#.#.#.#.",
", < 2 7 v { #.$.$.$.#.$.#.#.#.#.#.#.#.#.#.#.#.#.#.$.#.#.#.=.+.#.=.+.#.#.#.+.#.#.#.#.#.#.#.#.#.#.#.#.+.#.#.#.#.$.#.#.#.#.#.#.@.#.",
". < 2 7 v } #.$.$.#.$.#.#.#.#.#.#.#.#.#.+.#.#.=.$.#.=.#.#.#.#.#.#.=.#.#.#.#.#.#.#.#.#.#.#.#.#.#.#.#.#.#.#.#.#.#.#.#.$.#.#.#.#.#.",
". < 2 7 g } +.$.#.#.#.#.#.#.#.#.#.#.#.#.=.#.#.+.#.#.+.#.#.#.#.+.#.+.#.+.#.#.#.+.#.+.#.#.+.#.#.#.#.#.#.#.#.#.#.#.#.#.#.O.#.#.#.#.",
". < 2 7 v } #.#.O. . . .O.#.#.#.#.#.#.#.#.#.O.&. .| | &.O.=.=.#.#.#.#.#.#.#.+.#.#.#.#.#.#.#.#.#.#.#.#.#.#.#.O.O.O.O.O.O.O.#.#.#.",
". < 2 7 v } O.} B m N B { +.#.#.#.#.#.#.#.#.=.| C n n A | +.+.=.$.#.$.#.#.#.#.#.#.#.#.+.#.#.#.#.+.#.#.#.#.#.O.} N m m [ { O.#.#.",
". < 2 7 v }  .[ j s s f B O.#.$.=.#.#.#.$.#.O.D x y y x C  .#.#.$.#.$.#.#.#.#.#.#.#.#.O.#.#.#.$.$.#.#.=.$.#. .N f s s h N O.#.#.",
". < 2 a v } } N s 5 5 s m } #.$.=.#.#.#.#.#.| c y 0 0 y c | #.=.#.#.#.#.#.#.#.#.#.#.#.#.#.#.#.#.#.#.#.=.#.#.} b p 5 4 s N } #.$.",
". < 2 p v } } N s 5 5 7 z A ..+.&.+.=.+.+.| D u 0 o ; r c | +.=.+.X.%.X.+.+.#.#.#.#.#.#.#.#.#.+.X.%.%.&.&.#.} b s 5 5 s N } #.$.",
". < 2 p v } } [ h s a a k l n D | &. .%.] ^ W e : o o q x | X.%.Z ^ ^ Z ] +.#.#.#.#.#.#.#.#.+.X.' _ _ ' %.+. .B h s s h B O.#.#.",
". < 2 p v } O. .[ b z k t t y x A  .%.] ~ R I > & O ; r c | +.] ~ R R i ] %.#.#.#.#.#.#.#.#.%.' ( Q Q ( ' X.+.} B N N B } +.#.#.",
". < 2 7 v } +.#.+.} A l q 0 0 y n | %.) R L J * % O o r c | %.^ R L L U ^ | #.#.#.#.#.#.$.+.%._ Q Y P ! _ %.+.#. .} } O.O.+.#.#.",
". < 2 7 v } #.$.$.#.| x q ; ; q c | %.^ U J H $ # O ; y n | ] ^ I J J I ~ %.#.#.#.#.#.#.#.#.%./ T P P T _ %.#.#.#.#.#.#.#.#.#.#.",
". < 2 7 j } #.;.;.$.X.x q o o q c | ] ^ I J G @ # O o r c | | ~ I J J L ~ | #.$.$.#.#.#.#.#.%./ Y K P T / X.#.$.$.$.-.#.#.#.#.#."
};
