/* XPM */
static char *b336aa843a8e401a9ed1a6a40235c44bXZ6qDr0VvX6BnDNd[] = {
/* columns rows colors chars-per-pixel */
"16 16 4 1 ",
"  c #6FA430",
". c #44891A",
"X c #1A7244",
"o c white",
/* pixels */
"      .         ",
"     X.         ",
"  .       .   . ",
" X.      X.  X. ",
"       .        ",
"    . X.    .   ",
"   X.      X.   ",
"      .         ",
"   . X.    .   X",
"  X.    . X.    ",
".      X.    .  ",
".           X.  ",
"       .        ",
"      X.        ",
"  .           . ",
" X.       .  X. "
};
