/* XPM */
static char *char_resized[] = {
/* columns rows colors chars-per-pixel */
"32 32 160 2 ",
"   c #1E2D35",
".  c #1F2E38",
"X  c #2A3D2E",
"o  c #202E35",
"O  c #242E3B",
"+  c #282F3E",
"@  c #223133",
"#  c #253C33",
"$  c #2A3D31",
"%  c #21323D",
"&  c #2E432F",
"*  c #2D4C2D",
"=  c #334D2E",
"-  c #33572A",
";  c #3B552C",
":  c #345A29",
">  c #395D28",
",  c #2D4331",
"<  c #324631",
"1  c #374A31",
"2  c #3A6426",
"3  c #376226",
"4  c #547F1F",
"5  c #415F27",
"6  c #426026",
"7  c #436C24",
"8  c #4A6E23",
"9  c #43642B",
"0  c #4D7223",
"q  c #517523",
"w  c #537C20",
"e  c #5D7D26",
"r  c #456630",
"t  c #587433",
"y  c #607E26",
"u  c #372D46",
"i  c #372C49",
"p  c #382D48",
"a  c #213241",
"s  c #263D4B",
"d  c #233945",
"f  c #3C3845",
"g  c #273F51",
"h  c #3C3B5A",
"j  c #402C4D",
"k  c #412D50",
"l  c #682A6B",
"z  c #6A2E71",
"x  c #24414E",
"c  c #28414F",
"v  c #324F4B",
"b  c #34514B",
"n  c #39554B",
"m  c #274151",
"M  c #2A4454",
"N  c #2A4659",
"B  c #2C4858",
"V  c #274459",
"C  c #344958",
"Z  c #2F5267",
"A  c #32566C",
"S  c #32586E",
"D  c #345567",
"F  c #335A72",
"G  c #395977",
"H  c #4A5255",
"J  c #555653",
"K  c #555F64",
"L  c #4E626E",
"P  c #50636D",
"I  c #41687F",
"U  c #506673",
"Y  c #536A78",
"T  c #82297E",
"R  c #56811F",
"E  c #5B851E",
"W  c #5D881D",
"Q  c #628B1F",
"!  c #568020",
"~  c #5E8720",
"^  c #658C21",
"/  c #6B8F25",
"(  c #658228",
")  c #698628",
"_  c #6E9323",
"`  c #759923",
"'  c #356683",
"]  c #396683",
"[  c #366885",
"{  c #3B6B85",
"}  c #3B6D8B",
"|  c #3D708E",
" . c #3F799D",
".. c #3C769A",
"X. c #3F7BA0",
"o. c #417799",
"O. c #427A9D",
"+. c #487794",
"@. c #437EA2",
"#. c #832980",
"$. c #4B809E",
"%. c #5E869B",
"&. c #5F889F",
"*. c #668A9C",
"=. c #688D9E",
"-. c #4481A5",
";. c #4E84A4",
":. c #4584AB",
">. c #4887AD",
",. c #5089AB",
"<. c #468AB3",
"1. c #4A8CB5",
"2. c #468DB9",
"3. c #4A8EB8",
"4. c #4D93BD",
"5. c #5496BD",
"6. c #628AA2",
"7. c #6B91A2",
"8. c #6492AD",
"9. c #6897B3",
"0. c #659AB7",
"q. c #6898B5",
"w. c #729DB2",
"e. c #749FBA",
"r. c #75A2BC",
"t. c #79A4B9",
"y. c #78A3B7",
"u. c #4F95C1",
"i. c #989E96",
"p. c #A8A192",
"a. c #B6AA93",
"s. c #BAAF99",
"d. c #BDB199",
"f. c #9CA8A4",
"g. c #93AAAF",
"h. c #94ACB2",
"j. c #A3ABB0",
"k. c #CBAE8D",
"l. c #CBBA9E",
"z. c #E7C194",
"x. c #E9C193",
"c. c #CEC0A7",
"v. c #D4C7AD",
"b. c #DAC9AD",
"n. c #D9CBB1",
"m. c #E1CCAD",
"M. c #F0CEA4",
"N. c #FAD1A1",
"B. c #FFD7A8",
"V. c #FFDAA9",
"C. c #F2D0A6",
"Z. c #AABAC4",
"A. c #ADBEC8",
"S. c #B3CBD9",
"D. c #CDCFCF",
"F. c #CDCFD0",
"G. c #CED0D1",
"H. c #D9E6EE",
"J. c #DBE8F0",
"K. c #DAE7F0",
/* pixels */
"2 2 2 : # . . o o o o o @ O @ o o o   o o o       = ) _ 0 2 2 2 ",
"2 2 : * # % s m x c m c % % x B B B M B B B B B M n t y 0 7 7 7 ",
"2 > * # @ c F } [ [ +.F d s ] O.O.O.o.o.O.o.o.O.O.+.b ; 0 4 4 w ",
": 1 f i O m { ,.9.8.+.I P Y ;.4.4.5.u.u.4.u.u.u.u.@.A v 9 0 w 4 ",
", j l l u x [ q.S.Z.Y P j.A.0.<.4.4.5.u.4.4.4.4.5.1.@.+.b = 2 7 ",
"@ p T T j x [ r.H.D.P J F.H.r.X.<.1.-.@.1.4.4.4.4.1.@.] g $ > 7 ",
"  p T T j x [ r.H.D.P J F.H.e.X.1.@.A A @.4.4.5.4.-.S g % $ 7 4 ",
"% p l l u x [ r.H.D.P P D.H.e.-.1.-.A A @.4.4.4.4.-.A g % < 8 Q ",
"% O i i + g ] r.J.D.K K D.H.y.-.1.1.@.O.<.4.4.4.4.1.@.] g , 8 Q ",
", # @ % p C G 6.S.Z.U U Z.S.9.-.<.4.5.4.4.4.4.4.4.5.u.O.N < 8 E ",
": * # i z z k D *.8.+.+.8.9.,.-.1.4.4.4.4.4.4.4.4.4.u.@.M & 0 E ",
"2 : # i #.#.k x ' @.@.O. . .O.-.1.4.4.4.4.4.4.4.4.u.u.O.B & 0 Q ",
"2 : # k #.#.p m [ X.@.@.O.O.O.:.1.5.4.4.4.u.4.5.u.u.u.@.B & 0 Q ",
"2 : # i l l i m } -.-.O.O.@. .-.<.3.4.1.-.o.O.O.O.O.O.] s $ 7 4 ",
"2 : # a i i O m { -.-.@.-.O.O.-.-.>.1.-.S m B C N N N g a $ > 7 ",
"2 3 1 , , , @ s F | o.@.O.-.-.-.-.>.1.-.S s O @ $ X & $ < = 2 7 ",
"2 2 8 0 0 9 $ % d Z +.@.@.@.<.2.<.2.4.<.-.' m $ > 0 4 8 8 0 4 4 ",
"2 7 4 W Q q ; $ @ g ] ;.&.7.w.y.t.y.y.t.t.*.C & 0 Q E E E E Q 4 ",
"2 7 4 E W E q 5 X g { ;.i.d.c.v.v.v.v.v.n.p.H , 8 E E E E E E E ",
"2 7 4 R q 0 q 5 X g [ =.a.x.N.V.V.V.V.V.V.k.J , 4 Q E E E E Q 4 ",
"2 7 w q ; , < $ @ g ] =.a.z.N.B.V.B.V.V.V.k.J < y ` Q 4 E E E E ",
"2 7 4 0 , a g N B D } *.a.z.N.N.V.B.V.V.V.k.J < y ` Q E E E Q 4 ",
"2 7 4 8 , g { @.O.O.X.=.a.z.N.V.B.B.B.V.V.k.J < ( ` Q E 4 E E E ",
"2 7 4 0 , g { :.1.<.-.&.i.l.c.b.M.N.N.M.m.p.H < ( ` Q 4 Q Q Q 4 ",
"2 7 4 0 , a g A ..-.@.O.*.7.w.g.l.x.x.l.g.%.C 1 ( _ q 0 / _ ~ ~ ",
"2 7 4 q ; $ o s S +.O.@.@.:.2.0.f.d.d.f.0...V 1 ( _ 8 8 / ` ^ ! ",
"2 7 w R q 5 $ O s Z } -.<.3.4.u.q.w.9.q.4.O.N = ( _ q 0 _ ` ^ E ",
"2 7 4 E ~ w ; $ @ m { :.4.1.@. . .@.<.3.u.@.N < y Q q 0 ^ _ W E ",
"3 7 4 E E ! w 9 $ m { <.4.-.F M m A ..<.4.O.N & q ~ R E ~ ~ W E ",
"2 7 4 E E E 4 8 , s F | o.I b X @ s F } o.{ b ; q W W Q ~ E E ~ ",
"2 7 4 E E 4 0 > $ a s m B b r 6 $ % s m B b r q E ~ _ _ ~ E E E ",
"2 2 4 E E 4 7 - $ o o   . & 0 q < o o o   & 0 W E ^ ` ` ~ E E E "
};
