/* XPM */
static char *coll_resized[] = {
/* columns rows colors chars-per-pixel */
"32 32 117 2 ",
"   c #3A4E3B",
".  c #3A5631",
"X  c #3E5930",
"o  c #376226",
"O  c #396326",
"+  c #3D6924",
"@  c #537E1F",
"#  c #445E2F",
"$  c #404E36",
"%  c #4B4B36",
"&  c #524A36",
"*  c #455334",
"=  c #445D31",
"-  c #485E36",
";  c #465B38",
":  c #495B3A",
">  c #535334",
",  c #5B5434",
"<  c #575836",
"1  c #5E5B36",
"2  c #784E35",
"3  c #6E5333",
"4  c #635C35",
"5  c #7B5134",
"6  c #755935",
"7  c #416C24",
"8  c #46622E",
"9  c #49642E",
"0  c #4D6B2A",
"q  c #467025",
"w  c #4A7323",
"e  c #507525",
"r  c #537C22",
"t  c #587D23",
"y  c #4B6533",
"u  c #4E6830",
"i  c #4B633B",
"p  c #546036",
"a  c #516B32",
"s  c #517034",
"d  c #6B6A2F",
"f  c #657127",
"g  c #6C7629",
"h  c #737D25",
"j  c #777E2A",
"k  c #666133",
"l  c #686237",
"z  c #6C653D",
"x  c #726F39",
"c  c #3F5242",
"v  c #8D4E34",
"b  c #954E34",
"n  c #815535",
"m  c #8F5135",
"M  c #935135",
"N  c #955834",
"B  c #A64C34",
"V  c #A94C34",
"C  c #AC5034",
"Z  c #B05734",
"A  c #B15A33",
"S  c #B27F2E",
"D  c #AA6F33",
"F  c #BD6533",
"G  c #AF7633",
"H  c #B07633",
"J  c #B37A33",
"K  c #B87E35",
"L  c #C36D33",
"P  c #CB7832",
"I  c #D07C32",
"U  c #56801F",
"Y  c #5B851E",
"T  c #61861F",
"R  c #628B1F",
"E  c #578020",
"W  c #5D8522",
"Q  c #5F8820",
"!  c #6F8521",
"~  c #648C21",
"^  c #6B8E22",
"/  c #658528",
"(  c #6B8A2B",
")  c #718621",
"_  c #7A8622",
"`  c #798B23",
"'  c #679021",
"]  c #6E9223",
"[  c #729624",
"{  c #759923",
"}  c #799B24",
"|  c #878E29",
" . c #918527",
".. c #859526",
"X. c #889626",
"o. c #899827",
"O. c #A28629",
"+. c #AA8C2B",
"@. c #B6822E",
"#. c #BA862D",
"$. c #BF882F",
"%. c #A4932B",
"&. c #AF902C",
"*. c #BA8330",
"=. c #C3852F",
"-. c #C88A30",
";. c #D48431",
":. c #DD8733",
">. c #DD8D34",
",. c #E18E34",
"<. c #E19236",
"1. c #E79837",
"2. c #E89837",
"3. c #E69938",
"4. c #EB9E39",
"5. c #ECA03A",
"6. c #F0A63B",
/* pixels */
"O O O O O O O O O O O O O O O O O O O O O O O o o q ( ] q O O O ",
"O + 7 7 7 7 7 7 + + + 7 q + + + + 7 7 + O + q q 7 e ] ] e 7 7 7 ",
"O 7 w @ @ @ r @ @ r r @ @ @ @ @ r @ U w + 7 W ~ E W [ [ E r r r ",
"O 7 r Y Y Y Y T ) _ _ _ ) _ _ _ ) _ _ ! f g | o.] ' } } ' Q E E ",
"O 7 U Y Y Y Y ! O.$.#.@.#.#.#.#.#.#.#.@.S @.=.+...{ } } } ^ w + ",
"O + @ Y Y T !  .=.:.,.,.,.<.>.>.,.>.,.,.,.,.:.-.%.o.} { { ' e 7 ",
"O 7 r Y Y ) O.=.;.>.2.4.4.4.4.4.4.4.4.4.4.2.>.;.-.+.` Y ~ Q E r ",
"O 7 E E t j @.:.>.<.4.6.5.4.4.4.4.4.4.4.6.4.<.,.>.#.` U Y Y Y Y ",
"O 7 @ t s x K ,.2.4.6.5.<.>.>.>.>.>.>.<.5.6.5.2.>.#._ Y Y Y Y Y ",
"O 7 r t i z J <.4.6.5.2.<.>.>.>.>.>.>.<.2.5.6.4.,.@.h r U Y Y Y ",
"O 7 r r 9 l J ,.4.4.<.<.1.4.4.5.4.4.4.1.<.<.5.4.,.K d 0 r Y Y Y ",
"O 7 r r 9 4 S ,.5.4.>.>.4.6.6.6.6.5.6.4.>.>.4.4.,.H 4 # r Y Y Y ",
"O 7 U r 8 k J <.5.4.>.>.2.6.6.6.5.6.6.5.>.>.4.4.,.G 1 X w Y Y Y ",
"O 7 r e 8 k H ,.4.4.>.>.4.6.6.6.6.6.6.5.>.>.4.4.,.G , . e Y U r ",
"O 7 U r 8 k H ,.5.4.,.>.4.6.6.5.6.5.6.5.>.>.4.4.<.G , . e @ w 7 ",
"O 7 E r 8 k H <.5.5.<.,.1.4.4.4.5.4.4.3.<.<.5.4.,.H 1 X e @ w 7 ",
"o 7 @ r # k J ,.5.6.5.3.<.>.>.>.>.>.>.<.3.5.6.5.<.H 4 8 r Y @ @ ",
"o 7 @ e 9 k J ,.3.5.6.5.<.>.>.>.>.>.>.<.5.6.5.3.>.K k 8 e Y Y Y ",
"o 7 @ @ # k S :.>.<.5.6.5.5.5.3.4.4.4.5.5.5.<.>.:.S k 8 r Y Y Y ",
"7 7 @ @ 9 k D I ;.>.<.5.5.5.5.5.4.4.5.5.5.1.>.:.I D 4 8 r Y Y Y ",
"o 7 @ t 9 , N F I >.>.>.>.>.>.>.>.>.>.>.>.>.>.P F N , 8 r Y Y Y ",
"o 7 @ e # > v Z L P P P P P P P P P P P P P P L Z v , 8 r Y Y Y ",
"o 7 @ e X % v C A A A A A A A A A A A A F A A C V v , 8 r Y Y Y ",
"o 7 @ t X % 2 b B B B B B B B B B B B B b B B B b 5 > 8 t T T Y ",
"o 7 @ t = % > 3 b V V V B V V V V V V V V B V b 6 < $ - / [ T Y ",
"7 7 @ @ 0 = # > 2 b v v v v v m m m v v m M M n 4 :   : ( { R Y ",
"o 7 @ T t e # * > , , , , , , , 1 4 , , 4 4 4 1 p - c i ( { R Y ",
"o 7 @ t Y @ 0 9 # 9 9 # 8 8 8 8 u u 8 y u a a a a i i a ^ ] R Y ",
"o 7 @ Y Y @ t t r r r t r r r r r r r r r t t t t t r t ~ Q W Y ",
"o 7 @ Y Y Y @ @ Y Y r @ E T Y Y Y Y Y W Y Y Y Y E Y ~ R Y Y Y Y ",
"o 7 @ Y Y @ w w @ @ q w t Y Y Y Y Y Y Y Y Y Y Y Y ~ ] ] W Y Y Y ",
"o 7 @ Y T @ 7 7 @ @ 7 7 @ Y Y Y Y W Y Y Y Y Y Y Y ~ { } T Y Y Y "
};
