/* XPM */
static char *end_resized[] = {
/* columns rows colors chars-per-pixel */
"32 32 75 1 ",
"  c #3F4B3E",
". c #414D3D",
"X c #4C5F33",
"o c #577825",
"O c #5C7F24",
"+ c #577629",
"@ c #58772B",
"# c #597929",
"$ c #4D6634",
"% c #4E6833",
"& c #516C36",
"* c #546E3C",
"= c #5E7E32",
"- c #617637",
"; c #607538",
": c #637A38",
"> c #343649",
", c #353849",
"< c #393E4D",
"1 c #3E3F57",
"2 c #3E3E59",
"3 c #3C4542",
"4 c #3E4942",
"5 c #3C4349",
"6 c #3F4156",
"7 c #3F4058",
"8 c #444D42",
"9 c #455141",
"0 c #4C564B",
"q c #4E584B",
"w c #525C4F",
"e c #404256",
"r c #454B53",
"t c #42435A",
"y c #46495D",
"u c #4A4E5F",
"i c #475050",
"p c #4E5455",
"a c #4C515F",
"s c #505756",
"d c #525B51",
"f c #545D5A",
"g c #5D6D44",
"h c #566255",
"j c #56645A",
"k c #5A645E",
"l c #5D6A5B",
"z c #677B42",
"x c #697E41",
"c c #444460",
"v c #474861",
"b c #494C63",
"n c #4E5464",
"m c #4F5369",
"M c #52566C",
"N c #54596C",
"B c #586261",
"V c #5D6961",
"C c #638C1E",
"Z c #6D8B27",
"A c #67832D",
"S c #6A852D",
"D c #6D8A2A",
"F c #728E2E",
"G c #739622",
"H c #749921",
"J c #7B9E24",
"K c #74912D",
"L c #789828",
"P c #668130",
"I c #6C8733",
"U c #6E8932",
"Y c #718C34",
"T c #7DA023",
"R c #6A8041",
/* pixels */
"cctccccctccccctcccccctvcccccctcc",
"ddwwddwdwdddddwwdwdwwwddddwddwdd",
"IUUYUUUUUUUDYSYUUUUUUUUUUUUUYIII",
"JLFUUUUUUIYYUYUYFUUUUUUUUUUUYKLJ",
"TFgdddsddddwwdwdwwwwwdwdsdswdgFT",
"TYdbpddddsbbbvvyvvbbbuppwwwpbdYT",
"TYlB:UIYY:kMMMbbMMNMMf*#AYYzBlYJ",
"HIjhIGZSS:hnmbttbnnMMf&+OZHUjjPH",
"Z+94#AX . 3<<<,,<<<eyy4 .XO#98@C",
"Co 4## >,,,,,,,,,,,,et,>>.##.8+C",
"HPqqPP022266e6eeeeetttt620AI00PH",
"TIhfxRfbbbyvbbbbbbbbbbbbbf:RfdYJ",
"TYlNVVBNMMbbmMNNNNNNNNNMNNVVNlYT",
"TYlMMMMMNnvbnNNNNNNNNNNNNMMMNlYT",
"TYhbbbbnbbyybbbbbbbbbbbbbbbbbhYT",
"HP0776e7ee7ttttee6eeeeeeete670PH",
"C@.,,,,,,,,<ee1,,,,,,,,,,,,,,.+C",
"C#9<,5<<<<<6yt15<<<<<<,,<5<<1.#C",
"HPjnnnmnnnnnNNnnnnnnnattbnnnnhIH",
"TYVMNNNMNNNNNNNNNNNNMMbbMNNNMlYT",
"TYhbbbbbubbbbbbbbnbbbbyvbbbbbhYT",
"TYwepsr16eyttteeee6eeet7teiieqUT",
"TS.8--8>,<tt<,,,,,,,,,,,,4%$49ST",
"TS.8SS9>,,tt,,,,,,,,,,,,>.##.9PT",
"TYqqFSq71eytt1ee66t6667720PPw0IT",
"HIdhYFgsnbbbbbbbbbyvbasddgKYhdPH",
"C=jlYJK:kNMMNNNNMMbvmkRUYKLYljPZ",
"C=jNzYYxBMMMMMNMMnvvmkxUUIY:Bj@C",
"HPdbswwsuvbbbvbvbvvvvnpqdddpbdIH",
"TFgwswwsdwdddwdwddwwddwddsdddgFT",
"JLFUUUIUUUUUUIUUUUIUUIIIIIUIIULT",
"JJTJJTJJTTJTTTTTJTTJTTTTTTTTTTTL"
};
