/* XPM */
static char *grass_resized[] = {
/* columns rows colors chars-per-pixel */
"32 32 112 2 ",
"   c #376126",
".  c #376226",
"X  c #386226",
"o  c #386326",
"O  c #396326",
"+  c #3A6426",
"@  c #3C6626",
"#  c #3E6726",
"$  c #3E6825",
"%  c #3F6925",
"&  c #557F1F",
"*  c #406A24",
"=  c #406B24",
"-  c #416B24",
";  c #406A25",
":  c #426C24",
">  c #466E26",
",  c #477123",
"<  c #477025",
"1  c #477026",
"2  c #487223",
"3  c #4C7621",
"4  c #4C7622",
"5  c #487026",
"6  c #497126",
"7  c #4A7226",
"8  c #4C7524",
"9  c #4D7524",
"0  c #4D7624",
"q  c #4E7624",
"w  c #4F7724",
"e  c #4F7725",
"r  c #517C20",
"t  c #527C20",
"y  c #527D20",
"u  c #537D20",
"i  c #547E20",
"p  c #557F20",
"a  c #507824",
"s  c #56801F",
"d  c #58821E",
"f  c #59831E",
"g  c #59831F",
"h  c #5A841E",
"j  c #5A851E",
"k  c #5B851E",
"l  c #5B861E",
"z  c #5C861E",
"x  c #5D861E",
"c  c #5D871E",
"v  c #5E871E",
"b  c #60881F",
"n  c #60891F",
"m  c #61891F",
"M  c #618A1F",
"N  c #628A1F",
"B  c #628B1F",
"V  c #638B1F",
"C  c #568020",
"Z  c #578020",
"A  c #578120",
"S  c #588021",
"D  c #5B8421",
"F  c #5C8421",
"G  c #5C8521",
"H  c #5D8521",
"J  c #5F8720",
"K  c #5F8426",
"L  c #5F8820",
"P  c #628A20",
"I  c #628B20",
"U  c #638B20",
"Y  c #648C20",
"T  c #678C23",
"R  c #658B24",
"E  c #668C24",
"W  c #678C24",
"Q  c #678D24",
"!  c #698F21",
"~  c #688D24",
"^  c #6B8F25",
"/  c #6B8F26",
"(  c #6C8F26",
")  c #699021",
"_  c #6A9121",
"`  c #6D9222",
"'  c #6D9322",
"]  c #6E9322",
"[  c #6E9422",
"{  c #6F9422",
"}  c #6D9025",
"|  c #6D9125",
" . c #6E9225",
".. c #6C9026",
"X. c #6D9026",
"o. c #739723",
"O. c #749723",
"+. c #719524",
"@. c #729624",
"#. c #749823",
"$. c #759823",
"%. c #759923",
"&. c #749824",
"*. c #759824",
"=. c #759924",
"-. c #769924",
";. c #779A24",
":. c #789B24",
">. c #7A9C25",
",. c #7B9D25",
"<. c #7C9E25",
"1. c #7D9F25",
/* pixels */
"+ + O O O O O O O O O O O O O O O O O O + + o .   7 } } 7 . X O ",
"+ @ ; : : : : : : : : : : : : : : : : ; @ # > < : a  . .a = - : ",
"O ; 3 u u u u u u u u u u u u u u i u 3 % > K R S F @.@.G r y u ",
"O : u c z z z z z z l l z z z h & s j u = 6 X.:._ ) -.;._ L A u ",
"O : u z z l l l z l k k l z z & , 2 s u = 6 ..<.;.-.>.,.:.~ q * ",
"O : u z l k k k k x M M x k l i , , & & , 0 W $.$.#.o.#.%.Q 0 ; ",
"O : u z l k k j j M ] ] M j k g i p f f & Z J U U U U U U J Z t ",
"O : u z l k j h h U *.&.U h j k l l k k z l j h h h h h h j l z ",
"O : u z z k j h h U &.&.I h j k k k k k l l k j j j j j j k l z ",
"O : u z l x M m x U #.-.) n z x m M x k k k k k k k l l k k k k ",
"O : u l k M ] ] M V o.>.-.` b n ' ] M j j k k k k k z z k k k k ",
"O : u l k Y =.@.F D +.1.1.-.! ) ;.*.U h j k k k z f & p g l l z ",
"O : u l k Y -. .e q | 1.1.>.-.-.,.&.U h j k k z z & 2 , p z z z ",
"O : u l k N { W 8 8 E $.#.o.#.&.#.' m j j k k f & 4 $ * y h & t ",
"O : u z l c M J C C J U U U U U U m x k k l z & 2 $ + - u & 2 * ",
"O : u z z k j k z z k h h h h h h j k k k l z p , * - 2 s & 2 * ",
"O : u z l k j k z z k j j j j j j j k k k k k g p t y & f f p t ",
"O : u z l k k g p p g k k k k k k k k k k k k k l l z z k k z z ",
"O : u z l l z p , , p z l k k k k k k k k k k k k k l l k k l z ",
"O : u z z z z t * - u z z k l l k k k k j j j x M M x k k k k k ",
"O : u z z z z t - - u z z k z z k k k k j h h M ] ] M j j k k k ",
"O : u h & & h u - % 4 & h f p i g k k x M m z U &.*.Y j j j k k ",
"O : u & , , & u : + $ 2 & & , , i l k M ] ' n I #.*.Y j h j k k ",
"O : u & , , & s 2 - * 2 & & , , i k j U *.#.P P #.@.H C J M c k ",
"O : u h & p f f & y t p f f p i d h h U &.#.P B #.| w 9 W [ N h ",
"O : u z z z k k z z z z k k l v N m x U #.-.! ) ;./ 5 5 ( %.Y h ",
"O : u z z l k k l z z l k k k N { ] m I O.>.-.;.,.^ 1 5 ( %.Y h ",
"O : u z l k l l k k l l k j j M { ] m n ' #.&.$.$.T 8 9 W [ N h ",
"O : u z l k z z k k z z k k k c M M x x m U U U U J C C J M c k ",
"O : u z z g p p f f p p g k k k j j k k j h h h h x N N x h j k ",
"O : u z z p , 2 & & 2 , p z l k j j k k j j j h h M [ [ M h j k ",
"O : u z z t * - u u - * t z z k k k k k k k k j h U *.*.U h j k "
};
