/* XPM */
static char *start_resized[] = {
/* columns rows colors chars-per-pixel */
"32 32 88 1 ",
"  c #4E3738",
". c #4F3A3F",
"X c #523B3E",
"o c #583D39",
"O c #6F3E32",
"+ c #753B33",
"@ c #5B403F",
"# c #7A4036",
"$ c #7C443D",
"% c #2F384B",
"& c #343748",
"* c #343849",
"= c #393E4D",
"- c #473943",
"; c #4B3A42",
": c #413E48",
"> c #543F42",
", c #3F4156",
"< c #3B4159",
"1 c #5A4040",
"2 c #5E444B",
"3 c #424156",
"4 c #494355",
"5 c #42435A",
"6 c #4B4759",
"7 c #46495E",
"8 c #4D4B5F",
"9 c #534352",
"0 c #5C4751",
"q c #5C4A55",
"w c #514C5E",
"e c #5F515C",
"r c #614549",
"t c #664A4F",
"y c #684A4E",
"u c #654A50",
"i c #6A4F53",
"p c #655157",
"a c #6A5354",
"s c #65525A",
"d c #68575D",
"f c #6A585D",
"g c #72595A",
"h c #414660",
"j c #464B63",
"k c #4A4C63",
"l c #4D5464",
"z c #4E5469",
"x c #4F596E",
"c c #505468",
"v c #53596C",
"b c #5B5A69",
"n c #655860",
"m c #6D5C60",
"M c #8E3F29",
"N c #913F27",
"B c #AE411D",
"V c #8E412A",
"C c #934027",
"Z c #9B4023",
"A c #91412A",
"S c #944732",
"D c #934D35",
"F c #965036",
"G c #9B563E",
"H c #A44926",
"J c #AE4F26",
"K c #A54C2D",
"L c #A84D2C",
"P c #B54F24",
"I c #AE522E",
"U c #B65024",
"Y c #B1532F",
"T c #BA542B",
"R c #A64F31",
"E c #A65131",
"W c #AC5230",
"Q c #B15531",
"! c #B35833",
"~ c #C6501E",
"^ c #C8501E",
"/ c #D5571F",
"( c #D5581F",
") c #CC5623",
"_ c #D15720",
"` c #D45820",
"' c #834D43",
"] c #955540",
/* pixels */
"hhhhhhhhhhhhhhhhhhhhhhh<hhhhhhhh",
"utytyyytytyyytyyyyyuyyyiyiyyyyuu",
"WWYYYYYYYYQYYYYYYYYYYYYYYYIYYYWW",
"()TYIQYWYYYYYYYYYYYYYYYYIQYWYT)(",
"(T'tuuuuuuyyyyyyyyyyyytuuuuuu'T(",
"(Wikquuuuqwjkkhhjkjjj890uuuqkiQ(",
"(!fd]QYYYGdxxcjjzvvvxe$AKQY]df!(",
"^EaaE~PJJFplzk75kllcve#CHU~EaaE~",
"BV11CZ+oo;3,==**===:h6;;oOZA11VB",
"BM;;NNX%%*&&******%=55=%%XCC..MH",
")R22LLr<<,,,:h555:55h5h:<2KLrrK~",
"/Wau]Gpkl756kkkkjjkk88kjjiG]suQ(",
"/Wgbmmbvvl7kcvvvvvvvvvvvxbmnbgQ(",
"`!gxxvvvvzkjcvvvvvvvvvvvvxxxxgQ(",
"(Qijjkkkkk777kkkkkkkzjzjckzjkiQ`",
"^Kr,<,,,3,,5555:3355:<<:h::5=rK~",
"HNX********=5h=%&&&&******&&*;NB",
"BN>==:=====:hj::===::***=:===>MB",
"^Lizzzcccccccvckczzzc85hkcccciR^",
"`!gxxxvvvvvvvvvvcvvvvckjxvvxvg!`",
"`Qikjjjkkkkkkkkjkkkkkkjjkkkjki!`",
"^Lr4qu:h:hhh55:hh:h::5:h:59>:uI`",
"BN;>SS>%%::h=&******=***%;++.rL`",
"BNX>JY2%%=:h=**********%%>NNX>L`",
"^RrrQYr==hhh:h:hh:h:h:h=<uLLuuW`",
"~RuiQT'iyywkjkkkjkjkjwuyu'TYuuR~",
"BSsg!_)WYGnxvvvvvvvvxnGYYT_!gsSB",
"BSsn]WW!YGnxvvvvvvvvvn]IYYY]npSB",
"~Rtkquuuyq8jjjjjjjjjjkuttttqjuR^",
"`T'uuuuuyyyyyyyyuuyyyyttuuutt'T`",
"_^TWWWWWWWYWWYWYYYQWIIQIRWWWWT)_",
"__``````////``///`````````````_)"
};
