/* XPM */
static char *wall_resized[] = {
/* columns rows colors chars-per-pixel */
"32 32 193 2 ",
"   c #2C303E",
".  c #406C1F",
"X  c #517D19",
"o  c #416B26",
"O  c #446A34",
"+  c #46693B",
"@  c #46693C",
"#  c #47693F",
"$  c #567B30",
"%  c #2E3240",
"&  c #2F3341",
"*  c #303441",
"=  c #363B4A",
"-  c #3B404F",
";  c #414553",
":  c #404554",
">  c #414655",
",  c #414656",
"<  c #424756",
"1  c #434858",
"2  c #434958",
"3  c #434959",
"4  c #48505B",
"5  c #50535F",
"6  c #486942",
"7  c #4D694C",
"8  c #526E51",
"9  c #526E52",
"0  c #60785E",
"q  c #4B5161",
"w  c #4B5162",
"e  c #4C5162",
"r  c #4C5262",
"t  c #4D5262",
"y  c #4D5363",
"u  c #4E5566",
"i  c #4F5566",
"p  c #515869",
"a  c #555C6D",
"s  c #555C6E",
"d  c #565D6E",
"f  c #575E70",
"g  c #585F71",
"h  c #5D616C",
"j  c #5C6A6C",
"k  c #5C6375",
"l  c #5C6476",
"z  c #5E6577",
"x  c #5F6677",
"c  c #5F6678",
"v  c #646976",
"b  c #606779",
"n  c #656B78",
"m  c #646B7D",
"M  c #656C7D",
"N  c #656C7E",
"B  c #666D7F",
"V  c #667675",
"C  c #667677",
"Z  c #677876",
"A  c #6E7F72",
"S  c #667678",
"D  c #677679",
"F  c #69707D",
"G  c #6A707D",
"H  c #6A717E",
"J  c #6A787B",
"K  c #6A787C",
"L  c #6A787D",
"P  c #6B797D",
"I  c #6A787E",
"U  c #707F79",
"Y  c #707F7A",
"T  c #717F7B",
"R  c #717F7C",
"E  c #727F7C",
"W  c #727F7D",
"Q  c #608334",
"!  c #618436",
"~  c #628438",
"^  c #7A973A",
"/  c #65824C",
"(  c #66824D",
")  c #688350",
"_  c #799050",
"`  c #708074",
"'  c #708076",
"]  c #778574",
"[  c #76837B",
"{  c #77847C",
"}  c #676F81",
"|  c #686F81",
" . c #686F82",
".. c #686F83",
"X. c #687082",
"o. c #697082",
"O. c #697183",
"+. c #6A7183",
"@. c #6A7084",
"#. c #6C7487",
"$. c #6D7588",
"%. c #6E7688",
"&. c #707582",
"*. c #707682",
"=. c #717683",
"-. c #737885",
";. c #747986",
":. c #747A86",
">. c #757A87",
",. c #717B89",
"<. c #71788B",
"1. c #71798B",
"2. c #727B8B",
"3. c #767B88",
"4. c #737E89",
"5. c #727C8B",
"6. c #757F89",
"7. c #757E8B",
"8. c #71798C",
"9. c #71788D",
"0. c #727A8D",
"q. c #737A8D",
"w. c #737A8E",
"e. c #757D90",
"r. c #757D91",
"t. c #767D91",
"y. c #767E91",
"u. c #757C92",
"i. c #757D92",
"p. c #757C93",
"a. c #757D93",
"s. c #767D92",
"d. c #767D93",
"f. c #767E92",
"g. c #767F92",
"h. c #777F92",
"j. c #777E93",
"k. c #777F93",
"l. c #777D94",
"z. c #77808A",
"x. c #788094",
"c. c #798096",
"v. c #878E9A",
"b. c #888F9A",
"n. c #888F9B",
"m. c #88909B",
"M. c #89909B",
"N. c #90979B",
"B. c #91979B",
"V. c #95979E",
"C. c #91989C",
"Z. c #989DA1",
"A. c #9AA0A4",
"S. c #9AA1A4",
"D. c #9BA1A5",
"F. c #9CA2A6",
"G. c #9CA3A6",
"H. c #9DA3A6",
"J. c #A0A6A7",
"K. c #A0A7A8",
"L. c #A1A7A8",
"P. c #A2A8A9",
"I. c #A3A9A9",
"U. c #A3A9AA",
"Y. c #A4AAAA",
"T. c #A4ABAA",
"R. c #A5ABAA",
"E. c #A5ABAB",
"W. c #A6ACAB",
"Q. c #A7A8AC",
"!. c #A7A8AD",
"~. c #A7A9AD",
"^. c #A6ACAC",
"/. c #ACADB1",
"(. c #ADAFB3",
"). c #ACB1B0",
"_. c #ACB1B1",
"`. c #ADB1B1",
"'. c #AEB3B2",
"]. c #B0B4B3",
"[. c #B0B5B5",
"{. c #B2B6B6",
"}. c #B3B7B6",
"|. c #B3B5B9",
" X c #B6B8BC",
".X c #B7B9BD",
"XX c #BCBDBC",
"oX c #BCBDBD",
"OX c #C0C1C1",
"+X c #C2C3C3",
"@X c #C8C9C9",
"#X c #CBCCCC",
"$X c #CCCDCD",
/* pixels */
"a F B.^.W.E.T.Y.Y.Y.Y.Y.Y.Y.Y.Y.Y.Y.Y.Y.Y.Y.Y.Y.Y.Y.Y.T.E.E.T.Y.",
"a F B.U.F.D.L.T.Y.Y.Y.Y.Y.Y.Y.Y.Y.Y.Y.Y.Y.Y.Y.Y.Y.Y.T.L.D.D.L.T.",
"a G C.H.M.b.D.R.T.Y.Y.Y.Y.Y.Y.Y.Y.Y.Y.Y.Y.Y.Y.Y.Y.T.R.D.b.n.D.E.",
"a G C.G.m.v.D.R.T.Y.Y.Y.Y.Y.Y.Y.Y.Y.Y.Y.Y.Y.Y.Y.Y.T.R.D.v.b.D.E.",
"a F B.U.F.D.L.T.Y.Y.Y.Y.Y.Y.Y.Y.Y.Y.Y.Y.Y.Y.Y.Y.Y.Y.T.L.D.D.L.T.",
"a F B.^.W.R.T.Y.Y.Y.Y.Y.Y.Y.Y.Y.Y.Y.Y.Y.Y.Y.Y.Y.Y.Y.Y.T.R.R.T.Y.",
"a F B.W.W.T.Y.Y.Y.Y.Y.Y.Y.Y.Y.Y.Y.Y.Y.Y.Y.Y.Y.Y.Y.Y.Y.Y.T.T.Y.Y.",
"a F B.W.E.Y.Y.Y.Y.Y.Y.Y.Y.Y.Y.Y.Y.Y.Y.Y.Y.Y.Y.Y.Y.Y.Y.Y.Y.Y.Y.Y.",
"a F B.W.E.Y.Y.Y.Y.Y.Y.Y.Y.Y.Y.Y.Y.Y.Y.Y.Y.Y.Y.Y.Y.Y.Y.Y.Y.Y.Y.Y.",
"a F B.W.W.T.Y.Y.Y.Y.Y.Y.Y.Y.Y.Y.Y.Y.Y.Y.Y.Y.Y.Y.Y.Y.Y.Y.T.T.Y.Y.",
"a F B.^.W.R.T.Y.Y.Y.Y.Y.Y.Y.Y.Y.Y.Y.Y.Y.Y.Y.Y.Y.Y.Y.Y.T.R.R.T.Y.",
"a F B.U.F.D.L.T.Y.Y.Y.Y.Y.Y.Y.Y.Y.Y.Y.Y.Y.Y.Y.Y.Y.Y.T.L.D.D.L.T.",
"a G C.G.m.v.D.R.T.Y.Y.Y.Y.Y.Y.Y.Y.Y.Y.Y.Y.Y.Y.Y.Y.T.R.D.v.b.D.E.",
"s H B.F.n.v.S.T.Y.Y.Y.Y.Y.Y.Y.Y.Y.Y.Y.Y.Y.Y.Y.Y.Y.Y.T.S.v.v.S.T.",
"d H N.P.D.A.K.Y.Y.I.I.I.I.I.I.I.I.I.I.I.I.I.I.I.I.Y.Y.K.A.A.J.I.",
"w n Z.}.].`._.).)._._._._._._._._._._._._._._._._.).)._.`.'.[.{.",
"= h ~.#X+XoXXXoXoXoXoXoXoXoXoXoXoXoXoXoXoXoXoXoXoXoXoXXXoXOX@X$X",
"  5 V. X(.~.!.Q.Q.Q.Q.Q.Q.Q.Q.Q.Q.Q.Q.Q.Q.Q.Q.Q.Q.Q.Q.!.~./.|..X",
"% ; v 3.;.=.*.&.&.&.&.&.&.&.&.&.&.&.&.&.&.&.&.&.&.&.&.*.=.-.:.>.",
"* - p g i u f l k k k k k k k k k k k k k k k k k k l f u u f k ",
"& : z b 3 1 x %.$.#.#.#.#.#.#.#.#.#.#.#.#.#.#.#.#.$.%.x 1 2 c %.",
"& < B +.y r | h.g.y.y.y.y.y.y.y.y.y.y.y.y.y.y.y.y.g.h.| r t X.k.",
"& , M q.o.| 1.y.y.e.e.e.e.e.e.e.e.e.e.e.e.e.e.e.e.y.y.1.| | 8.y.",
"& > m h.k.g.e.e.e.e.e.e.e.e.e.e.e.e.e.e.e.e.e.e.e.e.e.e.g.g.e.e.",
"& > m h.h.y.e.e.e.e.e.e.e.e.e.e.e.e.e.e.e.e.e.e.e.e.e.e.y.y.e.e.",
"& > m h.h.y.e.e.e.e.e.e.t.t.e.e.e.e.e.e.e.e.e.e.e.e.e.e.y.y.e.e.",
"& > m h.k.g.e.e.e.e.e.r.s.s.r.e.e.e.e.e.e.e.e.e.e.e.e.e.g.g.e.e.",
"& , m 0.X.| 8.f.r.r.s.2.K K ,.r.i.r.e.e.e.e.e.e.r.i.r.<.} | <.y.",
"& < N o.r e ..k.f.s.l.L 9 8 J d.d.i.r.e.e.e.e.r.u.d.f.} q r | g.",
"& < N O.y 4 j P 5.7.E 0 O @ V 7.T U 4.r.e.e.r.6.[ { z.| e t | g.",
"& , m w.@.j 7 9 I W ) $ o # S R ( / Y i.r.r.u.[ _ _ { 9. .| <.y.",
"& > m x.c.Z + @ C ' ~ X . 6 D ` ! Q A d.i.u.p.] ^ ^ ] a.j.g.y.e."
};
